<?xml version="1.0" encoding="UTF-8" standalone="no"?>
<!-- Created with Inkscape (http://www.inkscape.org/) -->

<svg
   version="1.1"
   id="svg1"
   width="109.91733"
   height="109.91733"
   viewBox="0 0 109.91733 109.91733"
   sodipodi:docname="sets.pdf"
   xmlns:inkscape="http://www.inkscape.org/namespaces/inkscape"
   xmlns:sodipodi="http://sodipodi.sourceforge.net/DTD/sodipodi-0.dtd"
   xmlns="http://www.w3.org/2000/svg"
   xmlns:svg="http://www.w3.org/2000/svg">
  <defs
     id="defs1" />
  <sodipodi:namedview
     id="namedview1"
     pagecolor="#ffffff"
     bordercolor="#000000"
     borderopacity="0.25"
     inkscape:showpageshadow="2"
     inkscape:pageopacity="0.0"
     inkscape:pagecheckerboard="0"
     inkscape:deskcolor="#d1d1d1">
    <inkscape:page
       x="0"
       y="0"
       inkscape:label="1"
       id="page1"
       width="109.91733"
       height="109.91733"
       margin="0"
       bleed="0" />
  </sodipodi:namedview>
  <g
     id="g1"
     inkscape:groupmode="layer"
     inkscape:label="1">
    <path
       id="path1"
       d="m 62.49536,0 c 0,22.65503 -18.36502,41.02003 -41.02005,41.02003 -22.65503,0 -41.02003,-18.365 -41.02003,-41.02003 0,-22.65503 18.365,-41.02003 41.02003,-41.02003 22.65503,0 41.02005,18.365 41.02005,41.02003 z"
       style="fill:#ff8f66;fill-opacity:1;fill-rule:nonzero;stroke:#000000;stroke-width:0.3985;stroke-linecap:butt;stroke-linejoin:miter;stroke-miterlimit:10;stroke-dasharray:none;stroke-opacity:1"
       transform="matrix(1.3333333,0,0,-1.3333333,26.325333,54.958667)" />
    <path
       id="path2"
       d="m 44.54211,0 c 0,15.11171 -12.25013,27.36185 -27.36186,27.36185 C 2.06853,27.36185 -10.1816,15.11171 -10.1816,0 c 0,-15.11171 12.25013,-27.36185 27.36185,-27.36185 15.11173,0 27.36186,12.25014 27.36186,27.36185 z"
       style="fill:#ffc966;fill-opacity:1;fill-rule:nonzero;stroke:#000000;stroke-width:0.3985;stroke-linecap:butt;stroke-linejoin:miter;stroke-miterlimit:10;stroke-dasharray:none;stroke-opacity:1"
       transform="matrix(1.3333333,0,0,-1.3333333,26.325333,54.958667)" />
    <path
       id="path3"
       d="m 30.53189,0 c 0,9.74612 -7.90057,17.6467 -17.64669,17.6467 C 3.13907,17.6467 -4.76149,9.74612 -4.76149,0 c 0,-9.74612 7.90056,-17.6467 17.64669,-17.6467 9.74612,0 17.64669,7.90058 17.64669,17.6467 z"
       style="fill:#ffe766;fill-opacity:1;fill-rule:nonzero;stroke:#000000;stroke-width:0.3985;stroke-linecap:butt;stroke-linejoin:miter;stroke-miterlimit:10;stroke-dasharray:none;stroke-opacity:1"
       transform="matrix(1.3333333,0,0,-1.3333333,26.325333,54.958667)" />
    <path
       id="path4"
       d="m 18.74388,0 c 0,5.76067 -4.66983,10.4305 -10.43051,10.4305 C 2.5527,10.4305 -2.11711,5.76067 -2.11711,0 c 0,-5.76067 4.66981,-10.4305 10.43048,-10.4305 5.76068,0 10.43051,4.66983 10.43051,10.4305 z"
       style="fill:#90c590;fill-opacity:1;fill-rule:nonzero;stroke:#000000;stroke-width:0.3985;stroke-linecap:butt;stroke-linejoin:miter;stroke-miterlimit:10;stroke-dasharray:none;stroke-opacity:1"
       transform="matrix(1.3333333,0,0,-1.3333333,26.325333,54.958667)" />
    <path
       id="path5"
       d="m 9.90471,0 c 0,3.09816 -2.51149,5.60965 -5.60965,5.60965 -3.09818,0 -5.60965,-2.51149 -5.60965,-5.60965 0,-3.09816 2.51147,-5.60965 5.60965,-5.60965 3.09816,0 5.60965,2.51149 5.60965,5.60965 z"
       style="fill:#83aaf1;fill-opacity:1;fill-rule:nonzero;stroke:#000000;stroke-width:0.3985;stroke-linecap:butt;stroke-linejoin:miter;stroke-miterlimit:10;stroke-dasharray:none;stroke-opacity:1"
       transform="matrix(1.3333333,0,0,-1.3333333,26.325333,54.958667)" />
    <path
       id="path6"
       d="m 1.1127578,-5.9293203 v 4.8632812 c 0,0.52734379 -0.082031,0.70312504 -0.58593749,0.71484379 -0.10546875,0 -0.28125,0.0117188 -0.28125,0.17578125 0,0.1757812475 0.1640625,0.1757812475 0.33984375,0.1757812475 H 2.1322891 c 0.1757812,0 0.328125,0 0.328125,-0.1757812475 0,-0.1640625 -0.1640625,-0.17578125 -0.3046875,-0.17578125 -0.5390625,-0.0117188 -0.6210938,-0.2109375 -0.6210938,-0.73828129 v -4.5585937 l 4.3007813,5.68359374 c 0.09375,0.12890625 0.140625,0.15234375 0.2109375,0.15234375 0.1640625,0 0.1640625,-0.15234375 0.1640625,-0.328125 V -5.7652578 c 0,-0.5625 0.09375,-0.703125 0.5507812,-0.7148438 0.058594,0 0.234375,0 0.234375,-0.1640625 0,-0.1757812 -0.1523437,-0.1757812 -0.328125,-0.1757812 h -1.453125 c -0.1875,0 -0.3398437,0 -0.3398437,0.1757812 0,0.1640625 0.1757812,0.1640625 0.28125,0.1640625 0.5625,0.011719 0.6445312,0.2109375 0.6445312,0.7382813 v 3.1171875 L 2.7885391,-6.6793203 c -0.09375,-0.140625 -0.1289063,-0.140625 -0.3632813,-0.140625 H 0.70260156 c -0.1875,0 -0.33984375,0 -0.33984375,0.1757812 0,0.1523438 0.15234375,0.1640625 0.2109375,0.1640625 0.26953125,0.035156 0.45703129,0.1992188 0.56249999,0.3164063 -0.023437,0.082031 -0.023437,0.09375 -0.023437,0.234375 z M 5.8705703,-0.50353906 1.5346328,-6.2340078 C 1.4291641,-6.3511953 1.4291641,-6.3746328 1.3236953,-6.4801016 h 1.1835938 l 3.3632812,4.5351563 z m 0,0"
       style="fill:#000000;fill-opacity:1;fill-rule:nonzero;stroke:none"
       aria-label="N"
       transform="matrix(1.3333333,0,0,1.3333333,27.918667,59.534667)" />
    <path
       id="path7"
       d="m 5.9411797,-6.4683828 c 0.082031,-0.1289063 0.082031,-0.140625 0.082031,-0.1757813 0,-0.1757812 -0.140625,-0.1757812 -0.328125,-0.1757812 H 1.1364922 c -0.31640626,0 -0.31640626,0.023437 -0.35156251,0.28125 l -0.15234375,1.3476562 -0.0117188,0.1289063 c 0,0.140625 0.10546875,0.1875 0.17578125,0.1875 0.09375,0 0.15234375,-0.070312 0.1640625,-0.140625 0.046875,-0.2460938 0.14062491,-0.6796875 0.73828121,-1.0664063 0.5742188,-0.3632812 1.2656251,-0.3984375 1.6054688,-0.3984375 h 0.8085937 l -3.74999996,6.11718754 c -0.0820313,0.12890625 -0.0820313,0.15234375 -0.0820313,0.1875 0,0.1757812475 0.15234375,0.1757812475 0.33984375,0.1757812475 H 5.7302422 c 0.2929687,0 0.2929687,-0.0234374975 0.3398437,-0.2812499975 L 6.3396172,-2.2379141 c 0,-0.1171875 -0.09375,-0.1875 -0.1757813,-0.1875 -0.1523437,0 -0.1640625,0.1054688 -0.1992187,0.3046875 -0.1640625,0.8203125 -0.9492188,1.76953129 -2.3554688,1.76953129 H 2.1911797 Z m -4.8164063,-0.011719 h 0.5273438 v 0.011719 c -0.2695313,0.1523437 -0.4570313,0.328125 -0.5742188,0.4453125 z m 3.3984375,0 H 5.5427422 L 1.7810234,-0.35119531 H 0.76149219 Z m 0.5273438,6.11718754 c 0.28125,-0.15234375 0.5390625,-0.375 0.7617187,-0.65625004 -0.011719,0.19921879 -0.035156,0.31640629 -0.082031,0.66796879 H 5.0505547 Z m 0,0"
       style="fill:#000000;fill-opacity:1;fill-rule:nonzero;stroke:none"
       aria-label="Z"
       transform="matrix(1.3333333,0,0,1.3333333,40.457333,59.534667)" />
    <path
       id="path8"
       d="m 4.7583984,0.09501563 c 1.40625,-0.29296875 2.6601563,-1.40625003 2.6601563,-3.50390623 0,-2.5078125 -1.7578125,-3.5976563 -3.5390625,-3.5976563 -1.828125,0 -3.55078126,1.1367188 -3.55078126,3.5859375 0,2.1328125 1.27734376,3.15234378 2.44921876,3.45703128 0.4453125,1.03125002 1.4414062,1.74609372 2.671875,1.74609372 0.4921875,0 1.0429687,-0.09375 1.5585937,-0.2929687 0.1875,-0.070312 0.28125,-0.1171875 0.28125,-0.234375 0,-0.1171875 -0.082031,-0.1757813 -0.1640625,-0.1757813 -0.023437,0 -0.035156,0 -0.1054687,0.023437 -0.28125,0.058594 -0.3867188,0.058594 -0.5390625,0.058594 -0.9257813,0 -1.4882813,-0.57421877 -1.7226563,-1.06640597 z M 2.4966797,-6.3854531 c -0.5976563,0.703125 -0.7617188,1.875 -0.7617188,2.9648437 0,0.984375 0.1171875,2.2265625 0.7734375,3.00000003 -0.6796875,-0.2578125 -1.82812496,-1.05468753 -1.82812496,-2.98828123 0,-2.0273438 1.23046876,-2.765625 1.81640626,-2.9882813 z m 2.765625,-0.011719 c 0.6679687,0.2578125 1.8164062,1.0546875 1.8164062,2.9765625 0,2.0390625 -1.2421875,2.77734378 -1.8398437,3.00000003 0.6210937,-0.72656253 0.7734375,-1.88671873 0.7734375,-2.98828123 0,-0.9726563 -0.1171875,-2.2148438 -0.7617188,-2.9765625 z m -1.3828125,6.23437503 c -1.6171875,0 -1.7929688,-2.10937503 -1.7929688,-3.24609373 0,-1.1953125 0.1992188,-3.2578125 1.7929688,-3.2578125 1.6054687,0 1.7929687,2.1210937 1.7929687,3.2460937 0,1.1953125 -0.1992187,3.25781253 -1.7929687,3.25781253 z m -0.65625,0.3046875 c 0.2695312,0.046875 0.6445312,0.046875 0.65625,0.046875 0.046875,0 0.2578125,0 0.5390625,-0.0234375 0.2695312,0.62109375 0.7265625,0.99609377 1.2304687,1.19531247 0.09375,0.046875 0.1054688,0.046875 0.1054688,0.058594 0,0.011719 -0.1757813,0.011719 -0.3046875,0.011719 -0.84375,0 -1.7109375,-0.3984375 -2.2265625,-1.28906297 z m 0,0"
       style="fill:#000000;fill-opacity:1;fill-rule:nonzero;stroke:none"
       aria-label="Q"
       transform="matrix(1.3333333,0,0,1.3333333,52.3,58.428)" />
    <path
       id="path9"
       d="m 2.672125,-3.1285391 h 0.3515625 l 1.5,2.30859379 c 0.09375,0.1640625 0.3398438,0.55078125 0.4453125,0.703125 C 5.039312,3.671875e-4 5.0744688,3.671875e-4 5.297125,3.671875e-4 h 1.3828125 c 0.1757813,0 0.328125,0 0.328125,-0.1757812475 0,-0.0820312 -0.070312,-0.15234375 -0.1523437,-0.17578125 -0.375,-0.0820313 -0.8554688,-0.73828129 -1.1015625,-1.05468749 -0.070312,-0.09375 -0.5625,-0.75 -1.2304688,-1.828125 0.890625,-0.1640625 1.7460938,-0.5390625 1.7460938,-1.7226563 0,-1.3828125 -1.4648438,-1.8632812 -2.6484375,-1.8632812 H 0.50415625 c -0.1875,0 -0.33984375,0 -0.33984375,0.1757812 0,0.1640625 0.1875,0.1640625 0.26953125,0.1640625 0.5625,0 0.60937505,0.070312 0.60937505,0.5742188 v 4.99218749 c 0,0.4921875 -0.0468751,0.5625 -0.60937505,0.5625 -0.0820313,0 -0.26953125,0 -0.26953125,0.17578125 0,0.1757812475 0.15234375,0.1757812475 0.33984375,0.1757812475 H 3.2229063 c 0.1875,0 0.328125,0 0.328125,-0.1757812475 0,-0.17578125 -0.1640625,-0.17578125 -0.2695313,-0.17578125 -0.5742187,0 -0.609375,-0.0820313 -0.609375,-0.5625 z M 4.594,-3.6207266 c 0.28125,-0.3632812 0.3046875,-0.890625 0.3046875,-1.3242187 0,-0.4804688 -0.058594,-1.0078125 -0.375,-1.4179688 0.4101563,0.082031 1.3945313,0.3984375 1.3945313,1.40625 0,0.6445313 -0.3046875,1.1484375 -1.3242188,1.3359375 z M 2.672125,-5.9410391 c 0,-0.1992187 0,-0.5390625 0.6210938,-0.5390625 0.84375,0 1.2539062,0.3515625 1.2539062,1.5351563 0,1.2773437 -0.3046875,1.4648437 -1.875,1.4648437 z M 1.31275,-0.35119531 C 1.394781,-0.52697656 1.394781,-0.80822656 1.394781,-0.90197656 V -5.9293203 c 0,-0.09375 0,-0.3632813 -0.082031,-0.5507813 h 1.1367188 c -0.1289063,0.1640625 -0.1289063,0.3632813 -0.1289063,0.515625 v 5.06250004 c 0,0.10546875 0,0.375 0.082031,0.55078125 z M 3.4338438,-3.1285391 c 0.070312,-0.011719 0.1171875,-0.023437 0.1875,-0.023437 0.1523437,0 0.375,-0.011719 0.5273437,-0.035156 0.140625,0.234375 1.21875,2.015625 2.0507813,2.83593749 H 5.2268125 Z m 0,0"
       style="fill:#000000;fill-opacity:1;fill-rule:nonzero;stroke:none"
       aria-label="R"
       transform="matrix(1.3333333,0,0,1.3333333,67.874667,59.534667)" />
    <path
       id="path10"
       d="m 6.5402188,-6.6793203 c 0,-0.1757813 0,-0.328125 -0.1640625,-0.328125 -0.011719,0 -0.1640625,0 -0.1757813,0.1757812 -0.035156,0.28125 -0.2578125,0.28125 -0.328125,0.28125 -0.3515625,0 -0.703125,-0.1523437 -0.9023437,-0.2460937 -0.5039063,-0.2109375 -0.9375,-0.2109375 -1.0898438,-0.2109375 -1.6640625,0 -3.515625,1.0429687 -3.515625,3.5859375 0,2.54296874 1.8046875,3.60937499 3.5273438,3.60937499 0.5273437,0 1.2421875,-0.10546875 1.96875,-0.55078125 0.4570312,-0.28125 0.9609375,-0.78515624 0.9609375,-0.92578124 0,-0.140625 -0.140625,-0.1992188 -0.2109375,-0.1992188 -0.070312,0 -0.1054688,0.035156 -0.1992188,0.140625 -0.5859375,0.65625004 -1.4648437,1.05468754 -2.3554687,1.05468754 -1.546875,0 -1.9335938,-1.55859374 -1.9335938,-3.10546874 0,-1.9570313 0.7148438,-3.2695313 1.78125,-3.2695313 0.75,0 1.9453125,0.7265625 2.2851563,1.78125 0.023437,0.09375 0.058594,0.1992188 0.1875,0.1992188 0.1640625,0 0.1640625,-0.1640625 0.1640625,-0.328125 z M 6.200375,-5.6597891 C 6.0831875,-5.8238516 5.9425625,-5.9527578 5.6964688,-6.2105703 c 0.046875,0 0.1289062,0 0.1875,0 0.1054687,0 0.234375,-0.011719 0.3164062,-0.070312 z M 2.6613125,-6.4332266 c -0.234375,0.2226563 -0.890625,1.0898438 -0.890625,3.0351563 0,0.984375 0.1523438,2.3671875 1.0546875,3.08203124 C 1.18475,-0.84338281 0.716,-2.1910391 0.716,-3.4097891 c 0,-1.828125 1.0078125,-2.71875 1.9453125,-3.0351562 z m 0,0"
       style="fill:#000000;fill-opacity:1;fill-rule:nonzero;stroke:none"
       aria-label="C"
       transform="matrix(1.3333333,0,0,1.3333333,86.545333,59.534667)" />
  </g>
</svg>
