<?xml version="1.0" encoding="UTF-8" standalone="no"?>
<!-- Created with Inkscape (http://www.inkscape.org/) -->

<svg
   version="1.1"
   id="svg1"
   width="164.31866"
   height="1002.184"
   viewBox="0 0 164.31866 1002.184"
   sodipodi:docname="tat.pdf"
   xmlns:inkscape="http://www.inkscape.org/namespaces/inkscape"
   xmlns:sodipodi="http://sodipodi.sourceforge.net/DTD/sodipodi-0.dtd"
   xmlns="http://www.w3.org/2000/svg"
   xmlns:svg="http://www.w3.org/2000/svg">
  <defs
     id="defs1" />
  <sodipodi:namedview
     id="namedview1"
     pagecolor="#ffffff"
     bordercolor="#000000"
     borderopacity="0.25"
     inkscape:showpageshadow="2"
     inkscape:pageopacity="0.0"
     inkscape:pagecheckerboard="0"
     inkscape:deskcolor="#d1d1d1">
    <inkscape:page
       x="0"
       y="0"
       inkscape:label="1"
       id="page1"
       width="164.31866"
       height="1002.184"
       margin="0"
       bleed="0" />
  </sodipodi:namedview>
  <g
     id="g1"
     inkscape:groupmode="layer"
     inkscape:label="1">
    <path
       id="path1"
       d="m 31.383531,34.698625 3,-7.933594 h -0.621094 c -0.972656,2.578125 -3.597656,4.265625 -6.445312,5.003907 -0.527344,0.128906 -2.953125,0.773437 -7.710938,0.773437 H 4.6647812 L 17.274156,17.741594 c 0.175781,-0.199219 0.222656,-0.269531 0.222656,-0.386719 0,-0.05859 0,-0.128906 -0.175781,-0.375 L 5.7780625,1.1947188 H 19.360094 c 3.316406,0 5.578125,0.3398437 5.800781,0.3867187 1.335937,0.1992188 3.492187,0.6210938 5.449219,1.8632813 0.621093,0.3984375 2.308593,1.5117187 3.152343,3.515625 h 0.621094 l -3,-6.96093755 H 2.0866562 C 1.5124375,-5.9375e-4 1.489,0.02284375 1.4186875,0.1751875 1.3835312,0.2455 1.3835312,0.71425 1.3835312,0.9955 L 14.496812,18.936906 1.6647812,33.983781 c -0.2460937,0.292969 -0.2460937,0.421875 -0.2460937,0.445313 0,0.269531 0.2226562,0.269531 0.6679687,0.269531 z m 0,0"
       style="fill:#000000;fill-opacity:1;fill-rule:nonzero;stroke:none"
       aria-label="X"
       transform="matrix(1.3333333,0,0,1.3333333,11.014667,15.422667)" />
    <path
       id="path2"
       d="m 31.383312,34.698453 3,-7.933594 h -0.621093 c -0.972657,2.578125 -3.597657,4.265625 -6.445313,5.003907 -0.527344,0.128906 -2.953125,0.773437 -7.710937,0.773437 H 4.6645625 L 17.273937,17.741422 c 0.175782,-0.199219 0.222657,-0.269531 0.222657,-0.386719 0,-0.05859 0,-0.128906 -0.175782,-0.375 L 5.7778437,1.1945469 H 19.359875 c 3.316406,0 5.578125,0.3398437 5.800781,0.3867187 1.335938,0.1992188 3.492188,0.6210938 5.449219,1.8632813 0.621094,0.3984375 2.308594,1.5117187 3.152344,3.515625 h 0.621093 l -3,-6.960937525 H 2.0864375 c -0.5742188,0 -0.5976563,0.023437495 -0.6679688,0.175781245 -0.035156,0.0703125 -0.035156,0.5390625 -0.035156,0.8203125 L 14.496594,18.936734 1.6645625,33.983609 c -0.2460938,0.292969 -0.2460938,0.421875 -0.2460938,0.445313 0,0.269531 0.2226563,0.269531 0.6679688,0.269531 z m 0,0"
       style="fill:#000000;fill-opacity:1;fill-rule:nonzero;stroke:none"
       aria-label="X"
       transform="matrix(1.3333333,0,0,1.3333333,11.749333,14.321333)" />
    <path
       id="path3"
       d="m 31.383094,34.698625 3,-7.933594 H 33.762 c -0.972656,2.578125 -3.597656,4.265625 -6.445313,5.003907 -0.527343,0.128906 -2.953125,0.773437 -7.710937,0.773437 H 4.6643437 L 17.273719,17.741594 c 0.175781,-0.199219 0.222656,-0.269531 0.222656,-0.386719 0,-0.05859 0,-0.128906 -0.175781,-0.375 L 5.777625,1.1947188 h 13.582031 c 3.316406,0 5.578125,0.3398437 5.800781,0.3867187 1.335938,0.1992188 3.492188,0.6210938 5.449219,1.8632813 0.621094,0.3984375 2.308594,1.5117187 3.152344,3.515625 h 0.621094 l -3,-6.96093755 H 2.0862187 C 1.512,-5.9375e-4 1.4885625,0.02284375 1.41825,0.1751875 1.3830937,0.2455 1.3830937,0.71425 1.3830937,0.9955 L 14.496375,18.936906 1.6643437,33.983781 C 1.41825,34.27675 1.41825,34.405656 1.41825,34.429094 c 0,0.269531 0.2226562,0.269531 0.6679687,0.269531 z m 0,0"
       style="fill:#000000;fill-opacity:1;fill-rule:nonzero;stroke:none"
       aria-label="X"
       transform="matrix(1.3333333,0,0,1.3333333,12.484,15.422667)" />
    <path
       id="path4"
       d="m 8.2732891,-16.007578 c 0,-0.667969 -0.515625,-1.195313 -1.2070313,-1.195313 -0.9492187,0 -1.7578125,0.867188 -1.7578125,1.710938 0,0.667969 0.4921875,1.195312 1.2070313,1.195312 0.9257812,0 1.7578125,-0.867187 1.7578125,-1.710937 z m 0.6210937,12.3398436 c 0,-0.3515625 -0.3632812,-0.3515625 -0.5859375,-0.3515625 -0.3046875,0 -0.4804687,0 -0.5742187,0.328125 -0.7734375,2.6015625 -2.0390625,3.00000003 -2.5546875,3.00000003 -0.2460938,0 -0.3984375,-0.0820313 -0.3984375,-0.55078123 0,-0.5625 0.2226562,-1.1132813 0.8203125,-2.6015625 l 1.6640625,-4.2890625 c 0.1171875,-0.3164063 0.1992187,-0.6210938 0.1992187,-0.84375 0,-1.3124999 -1.2890625,-2.2265629 -2.8242187,-2.2265629 -2.578125,0 -3.84375004,3.3164066 -3.84375004,3.8671879 0,0.3515625 0.36328124,0.3515625 0.58593754,0.3515625 0.3046875,0 0.4804687,0 0.5742187,-0.328125 0.7734375,-2.6015625 2.0390625,-3.0000004 2.5546875,-3.0000004 0.2460938,0 0.3984375,0.08203 0.3984375,0.5507816 0,0.5625 -0.2226562,1.1132813 -0.8203125,2.6015625 l -1.6640625,4.2890625 c -0.1171875,0.3164063 -0.1992187,0.6210938 -0.1992187,0.84375 0,1.31250003 1.2890625,2.22656253 2.8242187,2.22656253 2.578125,0 3.84375,-3.31640623 3.84375,-3.86718753 z m 0,0"
       style="fill:#000000;fill-opacity:1;fill-rule:nonzero;stroke:none"
       aria-label="i"
       transform="matrix(1.3333333,0,0,1.3333333,65.730667,46.82)" />
    <path
       id="path5"
       d="M 5.7890938,-7.770625 C 5.496125,-8.801875 4.3594063,-9.3409375 3.246125,-9.3409375 c -0.7617187,0 -1.3476562,0.4335938 -1.8046875,1.1835938 -0.515625,0.8203125 -0.78515625,1.9335937 -0.78515625,2.0390625 0,0.2929687 0.31640625,0.2929687 0.50390625,0.2929687 0.2226563,0 0.3046875,0 0.4101563,-0.1054687 0.046875,-0.046875 0.046875,-0.082031 0.1640625,-0.5976563 0.4101562,-1.6171875 0.8671875,-2.0625 1.40625,-2.0625 0.3046875,0 0.4804687,0.1992188 0.4804687,0.7617188 0,0.3515625 -0.09375,0.6796875 -0.2929687,1.5117187 -0.140625,0.5742188 -0.3515625,1.3945313 -0.4570313,1.8515625 l -0.7382812,2.8945313 c -0.070312,0.2929687 -0.1757813,0.67968745 -0.1757813,0.8320312 0,0.43359375 0.3398438,0.90234375 0.9726563,0.90234375 1.078125,0 1.3242187,-0.94921875 1.4765625,-1.57031245 C 4.6055,-2.1690625 4.7695625,-2.8370312 4.9805,-3.7159375 5.0625313,-3.9854687 5.5781563,-6.1182812 5.6250313,-6.176875 5.63675,-6.3057812 6.2226875,-7.2315625 6.902375,-7.7940625 c 0.5742188,-0.4453125 1.2539063,-0.796875 2.1210938,-0.796875 0.5390625,0 1.0429692,0.1992188 1.0429692,1.21875 0,1.171875 -0.914063,3.5859375 -1.3007817,4.6289063 -0.234375,0.5507812 -0.2929688,0.6914062 -0.2929688,1.0429687 0,1.20703125 1.1953125,1.86328125 2.3320315,1.86328125 2.191406,0 3.222656,-2.81249995 3.222656,-3.22265625 0,-0.2929687 -0.304687,-0.2929687 -0.492187,-0.2929687 -0.246094,0 -0.398438,0 -0.480469,0.2695312 -0.679688,2.296875 -1.792969,2.5078125 -2.121094,2.5078125 -0.152344,0 -0.351562,0 -0.351562,-0.4335937 0,-0.4804688 0.199218,-0.9960938 0.410156,-1.5117188 0.328125,-0.84375 1.277344,-3.2695312 1.277344,-4.4179687 0,-1.9101563 -1.59375,-2.4023438 -3.070313,-2.4023438 -0.4335937,0 -1.9453125,0 -3.4101562,1.5703125 z m 0,0"
       style="fill:#000000;fill-opacity:1;fill-rule:nonzero;stroke:none"
       aria-label="n"
       transform="matrix(1.3333333,0,0,1.3333333,79.109333,33.173333)" />
    <path
       id="path6"
       d="m 12.468297,-17.273203 c 0.175781,-0.398438 0.175781,-0.445313 0.175781,-0.550781 0,-0.46875 -0.398437,-0.761719 -0.75,-0.761719 -0.515625,0 -0.667969,0.363281 -0.820312,0.738281 L 1.7573594,4.8869531 C 1.5815781,5.2736719 1.5815781,5.3322656 1.5815781,5.4260156 c 0,0.46875 0.3984375,0.7734375 0.75,0.7734375 0.515625,0 0.6914063,-0.421875 0.8203125,-0.7265625 z m 8.72168,7.9570311 c -0.339844,-1.2421871 -1.710938,-1.8867191 -3.046875,-1.8867191 -0.914063,0 -1.605469,0.515625 -2.15625,1.4179691 -0.621094,0.984375 -0.9375,2.3203125 -0.9375,2.4492188 0,0.3515625 0.363281,0.3515625 0.585937,0.3515625 0.28125,0 0.375,0 0.503906,-0.1289063 0.04687,-0.046875 0.04687,-0.09375 0.199219,-0.7148437 0.492188,-1.9335938 1.03125,-2.4843754 1.675781,-2.4843754 0.375,0 0.574219,0.246094 0.574219,0.9140629 0,0.421875 -0.09375,0.8203125 -0.339844,1.8164062 -0.175781,0.6914063 -0.421875,1.6875 -0.550781,2.2265625 l -0.890625,3.46875 c -0.07031,0.3515625 -0.199219,0.8203125 -0.199219,0.99609378 0,0.515625 0.398438,1.08984375 1.160157,1.08984375 1.289062,0 1.59375,-1.13671875 1.757812,-1.88671873 0.257813,-0.9140625 0.457031,-1.7109375 0.703125,-2.7773438 0.09375,-0.3164062 0.714844,-2.8710937 0.761719,-2.9414062 0.02344,-0.1523438 0.726562,-1.265625 1.535156,-1.9335938 0.703125,-0.5507812 1.511719,-0.9726566 2.554688,-0.9726566 0.644531,0 1.242187,0.246094 1.242187,1.4648441 0,1.40625 -1.089844,4.3125 -1.558594,5.5546875 -0.28125,0.6679688 -0.351562,0.84375 -0.351562,1.265625 0,1.42968753 1.441406,2.22656253 2.800781,2.22656253 2.625,0 3.867188,-3.37500003 3.867188,-3.86718753 0,-0.3515625 -0.375,-0.3515625 -0.597657,-0.3515625 -0.292968,0 -0.46875,0 -0.5625,0.328125 -0.820312,2.75390628 -2.15625,3.00000003 -2.554687,3.00000003 -0.175781,0 -0.421875,0 -0.421875,-0.52734373 0,-0.5625 0.246094,-1.1835938 0.492187,-1.8046875 0.398438,-1.0195313 1.535157,-3.9140625 1.535157,-5.3085938 0,-2.2734371 -1.910157,-2.8710941 -3.691407,-2.8710941 -0.515625,0 -2.332031,0 -4.089843,1.8867191 z m 0,0"
       style="fill:#000000;fill-opacity:1;fill-rule:nonzero;stroke:none"
       aria-label="/n"
       transform="matrix(1.3333333,0,0,1.3333333,99.414667,46.82)" />
    <path
       id="path7"
       d="m 5.9759141,-15.187266 c 0.046875,-0.351562 0.046875,-0.398437 0.046875,-0.679687 0,-1.113281 -1.0195313,-1.628906 -1.78125,-1.628906 -0.7734375,0 -1.7929688,0.539062 -1.7929688,1.628906 0,0.28125 0,0.328125 0.058594,0.679687 l 1.1835937,9.2695316 c 0.046875,0.46875 0.070312,0.5390625 0.5507813,0.5390625 0.46875,0 0.4921875,-0.070312 0.5390625,-0.5390625 z m 0.046875,13.4062504 c 0,-0.9960938 -0.796875,-1.7929688 -1.78125,-1.7929688 -0.9960938,0 -1.7929688,0.796875 -1.7929688,1.7929688 0,0.98437498 0.796875,1.781249975 1.7929688,1.781249975 0.984375,0 1.78125,-0.796874995 1.78125,-1.781249975 z m 0,0"
       style="fill:#000000;fill-opacity:1;fill-rule:nonzero;stroke:none"
       aria-label="!"
       transform="matrix(1.3333333,0,0,1.3333333,141.98133,46.82)" />
    <path
       id="path8"
       d="m 12.714016,-15.692055 v 6.3281253 H 3.1983906 c -0.4453125,0 -1.21875,0 -1.21875,0.7617188 0,0.75 0.7265625,0.75 1.0664063,0.75 h 9.6679691 v 6.3398437 H 2.7062031 c -0.375,0 -1.125,0 -1.125,0.73828126 0,0.7734375025 0.7265625,0.7734375025 1.125,0.7734375025 H 13.112453 c 0.890625,0 1.113281,-0.1992187525 1.113281,-1.1132812625 V -16.090492 c 0,-0.890625 -0.199218,-1.113281 -1.113281,-1.113281 H 2.7062031 c -0.375,0 -1.125,0 -1.125,0.75 0,0.761718 0.7265625,0.761718 1.125,0.761718 z m 0,0"
       style="fill:#000000;fill-opacity:1;fill-rule:nonzero;stroke:none"
       aria-label="∃"
       transform="matrix(1.3333333,0,0,1.3333333,71.602667,170.98133)" />
    <path
       id="path9"
       d="m 2.5788281,53.953844 c 0.796875,-0.04687 1.21875,-0.585938 1.21875,-1.207032 0,-0.820312 -0.6210937,-1.21875 -1.1953125,-1.21875 -0.5976562,0 -1.21875,0.375 -1.21875,1.242188 0,1.265625 1.2421875,2.308594 2.7539063,2.308594 3.7734375,0 5.1796875,-5.800782 6.9375001,-12.996094 1.910156,-7.828125 3.527344,-15.738281 4.863281,-23.695313 C 16.852266,13.114 17.766328,8.1569687 18.610078,4.95775 18.914766,3.739 19.758516,0.5515 20.719453,0.5515 c 0.773438,0 1.394531,0.46875 1.488281,0.5625 -0.820312,0.046875 -1.242187,0.5976562 -1.242187,1.21875 0,0.8203125 0.621094,1.2070312 1.195312,1.2070312 0.597657,0 1.207032,-0.3632812 1.207032,-1.2304687 0,-1.34765625 -1.335938,-2.30859375 -2.695313,-2.30859375 -1.886719,0 -3.269531,2.70703125 -4.640625,7.75781245 C 15.961641,8.0280625 12.586641,20.473375 9.8678906,36.680406 9.2233594,40.477281 8.4967969,44.614 7.6882031,48.059312 c -0.4453125,1.804688 -1.59375,6.46875 -3.5976562,6.46875 -0.890625,0 -1.4882813,-0.574218 -1.5117188,-0.574218 z m 0,0"
       style="fill:#000000;fill-opacity:1;fill-rule:nonzero;stroke:none"
       aria-label="Z"
       transform="matrix(1.3333333,0,0,1.3333333,30.96,254.01467)" />
    <path
       id="path10"
       d="m 6.2916875,-15.045875 c 0.890625,-1.113281 2.0625,-1.605469 3.3984375,-1.605469 0.492187,0 1.6875,0.07031 2.625,0.890625 1.042969,0.9375 1.042969,2.308594 1.042969,2.894532 0,1.394531 -0.351563,2.777343 -0.714844,4.148437 -0.703125,-2.554687 -2.8007813,-2.554687 -3.328125,-2.554687 -2.0273438,0 -3.7851563,0.515625 -5.6484375,2.2499995 -2.109375,1.9101563 -2.203125,4.8046875 -2.203125,5.1328125 0,1.734375 1.0429687,2.8007813 1.7578125,3.33984375 1.0195312,0.7734375 2.2851562,0.97265625 3.6914062,0.97265625 8.0273438,0 9.3749998,-9.984375 9.3749998,-11.800781 0,-4.335938 -3,-6.246094 -6.4687498,-6.246094 -4.2890625,0 -5.4375,3.574219 -5.4375,4.335938 0,0.328125 0.1757813,1.148437 1.2421875,1.148437 1.1132813,0 1.7578125,-1.019531 1.7578125,-1.734375 0,-0.867187 -0.7617187,-1.125 -1.0898437,-1.171875 z m 0.75,14.40234375 C 6.0221562,-0.64353125 4.487,-0.8661875 4.487,-2.7763437 c 0,-0.9375 0.7851562,-4.6289063 1.6289062,-5.8945313 0.3515625,-0.5039062 1.3476563,-1.710937 3.375,-1.710937 2.5078128,0 2.6015628,2.4257808 2.6015628,3.0468745 0,1.5117188 -0.960938,3.9140625 -1.488282,4.7109375 -0.6679683,0.984375 -1.9335933,1.98046875 -3.5624995,1.98046875 z m 0,0"
       style="fill:#000000;fill-opacity:1;fill-rule:nonzero;stroke:none"
       aria-label="∂"
       transform="matrix(1.3333333,0,0,1.3333333,69.517333,298.99867)" />
    <path
       id="path11"
       d="m 11.297672,-10.12543 c 0,-3.632812 -2.1445314,-4.382812 -3.4101564,-4.382812 -1.6289062,0 -3.6914062,1.078125 -5.2382812,3.890625 -1.0546875,1.9453123 -1.69921878,4.7460936 -1.69921878,6.4218748 0,3 1.57031248,4.35937501 3.43359378,4.35937501 1.3828125,0 3.1992187,-0.80859375 4.6289062,-2.90625001 1.7343754,-2.5429687 2.2851564,-5.8359375 2.2851564,-7.3828128 z m -7.2070314,2.4609378 c 0.2929688,-1.1953125 0.8320313,-3.0820308 1.4414063,-4.1484378 0.4804687,-0.855468 1.3242187,-1.945312 2.3203125,-1.945312 0.8671875,0 1.2421875,0.902344 1.2421875,2.121094 0,1.300781 -0.4570313,3.1054683 -0.6796875,3.9726558 z m 4.0664063,0.9960938 c -1.2773438,5.53125 -3.0117188,6.09374996 -3.7382813,6.09374996 -0.28125,0 -0.7148437,-0.0820313 -1.0078125,-0.72656246 -0.2460937,-0.5625 -0.2460937,-1.359375 -0.2460937,-1.3828125 0,-1.1835938 0.4570312,-3.1054688 0.6796875,-3.984375 z m 0,0"
       style="fill:#000000;fill-opacity:1;fill-rule:nonzero;stroke:none"
       aria-label="θ"
       transform="matrix(1.3333333,0,0,1.3333333,90.288,306.74667)" />
    <path
       id="path12"
       d="m 14.999445,-1.8857187 c -1.417968,-0.023437 -2.332031,-0.1992188 -4.195312,-0.5390625 -1.2656252,-0.2226563 -2.6953127,-0.5039063 -4.0664064,-0.5039063 -0.3398438,0 -0.4921875,0 -0.7851563,0.058594 0.84375,-1.3125 1.2539063,-3 1.5351563,-4.0429688 0.6445312,-2.5078125 1.734375,-5.9999997 3.4453124,-7.7812497 0.292969,-0.304688 0.421875,-0.421875 0.984375,-0.421875 1.171875,0 1.640625,0.867187 1.640625,1.734375 0,0.316406 -0.07031,0.539062 -0.07031,0.621093 0,0.269532 0.246093,0.316407 0.363281,0.316407 0.527344,0 1.335937,-0.316407 2.15625,-0.867188 0.925781,-0.644531 1.066406,-1.066406 1.066406,-1.828125 0,-1.195312 -0.761719,-2.285156 -2.332031,-2.285156 -1.382813,0 -3.984375,0.574219 -6.6328127,3.269531 C 5.6010078,-11.624 4.4408516,-7.0419687 3.9369453,-5.1786875 3.1517891,-2.0615 2.5541328,-1.5341562 1.9564766,-1.0419687 1.6635078,-0.795875 0.99553906,-0.24509375 0.99553906,0.15334375 c 0,0.0703125 0.046875,0.26953125 0.38671874,0.26953125 0.3515625,0 1.21875,-0.19921875 2.3554688,-1.04296875 1.4882812,0.0234375 2.5546875,0.22265625 4.1953125,0.55078125 1.4648437,0.26953125 2.8242189,0.4921875 4.0898439,0.4921875 3.492187,0 6.585937,-2.9765625 6.585937,-4.265625 0,-0.1992187 -0.222656,-0.2929687 -0.363281,-0.2929687 -0.84375,0 -3,1.0195312 -3.246094,2.25 z m 0,0"
       style="fill:#000000;fill-opacity:1;fill-rule:nonzero;stroke:none"
       aria-label="L"
       transform="matrix(1.3333333,0,0,1.3333333,107.30933,298.99867)" />
    <path
       id="path13"
       d="m 15.493328,-13.031367 c 0.375,0 1.113281,0 1.113281,-0.75 0,-0.773438 -0.714843,-0.773438 -1.113281,-0.773438 h -4.417969 c -4.6992184,0 -8.6953121,3.679688 -8.6953121,8.3554691 0,4.6171875 3.9140625,8.3320312 8.6953121,8.3320312 h 4.417969 c 0.375,0 1.113281,0 1.113281,-0.75 0,-0.76171874 -0.714843,-0.76171874 -1.113281,-0.76171874 h -4.335937 c -3.6914066,0 -6.7734379,-2.50781246 -7.2187504,-6.07031246 H 15.493328 c 0.375,0 1.113281,0 1.113281,-0.75 0,-0.7617188 -0.714843,-0.7617188 -1.113281,-0.7617188 H 3.9386406 c 0.4453125,-3.5507813 3.5273438,-6.0703123 7.2187504,-6.0703123 z m 0,0"
       style="fill:#000000;fill-opacity:1;fill-rule:nonzero;stroke:none"
       aria-label="∈"
       transform="matrix(1.3333333,0,0,1.3333333,69.490667,429.84)" />
    <path
       id="path14"
       d="m 4.7112969,-17.471375 c 0,-0.375 0,-1.113281 -0.75,-1.113281 -0.7617188,0 -0.7617188,0.714843 -0.7617188,1.113281 V 5.0872187 c 0,0.3632813 0,1.1132813 0.7382813,1.1132813 0.7734375,0 0.7734375,-0.7265625 0.7734375,-1.1132813 z m 0,0"
       style="fill:#000000;fill-opacity:1;fill-rule:nonzero;stroke:none"
       aria-label="|"
       transform="matrix(1.3333333,0,0,1.3333333,22.257333,540.48267)" />
    <path
       id="path15"
       d="m 14.778648,-16.088563 c 0.222657,-0.316406 0.222657,-0.363281 0.222657,-0.445312 0,-0.445313 -0.375,-0.445313 -0.820313,-0.445313 H 2.8255234 c -0.796875,0 -0.796875,0.08203 -0.8671875,0.726563 l -0.375,3.339844 -0.046875,0.328125 c 0,0.339843 0.2695313,0.46875 0.4453125,0.46875 0.2226563,0 0.375,-0.175782 0.421875,-0.375 0.1054688,-0.597657 0.328125,-1.6875 1.8398438,-2.625 1.40625,-0.914063 3.140625,-0.996094 3.984375,-0.996094 H 10.231773 L 0.91536719,-0.88934375 c -0.22265625,0.31640625 -0.22265625,0.375 -0.22265625,0.4453125 0,0.4453125 0.39843746,0.4453125 0.84374996,0.4453125 H 14.251305 c 0.75,0 0.75,-0.046875 0.84375,-0.69140625 l 0.667968,-4.8867188 c 0,-0.2695312 -0.222656,-0.4453125 -0.421875,-0.4453125 -0.375,0 -0.421875,0.2460938 -0.492187,0.75 -0.421875,2.0273438 -2.355469,4.40625005 -5.8710938,4.40625005 H 5.4505234 Z M 2.8020859,-16.112 h 1.3125 v 0.02344 c -0.6679687,0.375 -1.1367187,0.820313 -1.4414062,1.089844 z m 8.4492191,0 h 2.53125 L 4.4427109,-0.86590625 h -2.53125 z m 1.3125,15.22265625 c 0.703125,-0.39843755 1.347656,-0.94921875 1.910156,-1.64062505 -0.04687,0.5039063 -0.09375,0.7734375 -0.222656,1.66406255 h -1.6875 z m 0,0"
       style="fill:#000000;fill-opacity:1;fill-rule:nonzero;stroke:none"
       aria-label="Z"
       transform="matrix(1.3333333,0,0,1.3333333,32.814667,540.48267)" />
    <path
       id="path16"
       d="m 4.7106797,-17.471375 c 0,-0.375 0,-1.113281 -0.75,-1.113281 -0.7617188,0 -0.7617188,0.714843 -0.7617188,1.113281 V 5.0872187 c 0,0.3632813 0,1.1132813 0.7382813,1.1132813 0.7734375,0 0.7734375,-0.7265625 0.7734375,-1.1132813 z m 0,0"
       style="fill:#000000;fill-opacity:1;fill-rule:nonzero;stroke:none"
       aria-label="|"
       transform="matrix(1.3333333,0,0,1.3333333,54.848,540.48267)" />
    <path
       id="path17"
       d="m 19.137172,-13.006531 c 0.339844,-0.175782 0.621094,-0.375 0.621094,-0.796875 0,-0.351563 -0.304688,-0.75 -0.773438,-0.75 -0.175781,0 -0.292969,0.05859 -0.46875,0.152343 L 3.0004531,-6.9830938 c -0.2695312,0.1171875 -0.6210937,0.3164063 -0.6210937,0.7617188 0,0.4453125 0.2929687,0.6445312 0.6210937,0.796875 L 18.445766,1.9583125 c 0.339843,0.1757812 0.492187,0.1757812 0.539062,0.1757812 0.46875,0 0.773438,-0.3984375 0.773438,-0.75 0,-0.42187495 -0.28125,-0.60937495 -0.621094,-0.7851562 L 4.8871719,-6.1979375 Z m 0,0"
       style="fill:#000000;fill-opacity:1;fill-rule:nonzero;stroke:none"
       aria-label="&lt;"
       transform="matrix(1.3333333,0,0,1.3333333,74.585333,540.48267)" />
    <path
       id="path18"
       d="m 12.985328,-6.8659063 c 0.08203,-0.6914062 0.222656,-1.5351562 0.550781,-3 0.04687,-0.2226567 0.269532,-1.2070317 0.398438,-2.0742187 0.164062,0.117187 0.421875,0.386719 0.46875,0.9375 0.02344,0.175781 0.09375,0.421875 0.339844,0.421875 0.05859,0 1.066406,-0.269531 1.066406,-2.730469 0,-0.691406 -0.02344,-1.136719 -1.230469,-1.710937 -0.667969,-0.292969 -0.75,-0.339844 -1.195312,-0.761719 -0.714844,-0.75 -0.820313,-0.925781 -0.9375,-1.242188 -0.08203,-0.09375 -0.199219,-0.175781 -0.304688,-0.175781 -0.04687,0 -1.066406,0.269531 -1.066406,2.730469 0,0.492187 0,1.582031 1.59375,2.109375 -0.105469,0.84375 -0.128906,0.984375 -0.773438,3.9609375 -0.02344,0.1757812 -0.09375,0.375 -0.117187,0.515625 L 4.2665781,-14.096375 c -0.328125,-0.28125 -1.1953125,-0.996094 -1.265625,-2.554688 0,-0.199218 -0.023437,-0.550781 -0.3515625,-0.550781 -0.2695312,0 -0.6445312,0.527344 -0.84375,1.042969 -0.1992187,0.515625 -0.2226562,1.195312 -0.2226562,1.710937 0,1.804688 0.9257812,2.554688 2.8242187,4.113282 -0.1875,0.269531 -2.0273437,2.8242185 -2.0273437,4.7578122 0,0.796875 0.328125,1.3945313 0.6914062,1.9804688 0.5273438,0.9257812 0.84375,1.4179687 0.84375,2.0390625 0,0.2695312 -0.1171875,0.66796875 -1.6875,0.66796875 -0.3867187,0 -0.6445312,0 -0.6445312,0.4453125 0,0.4453125 0.2578125,0.4453125 0.7734375,0.4453125 h 2.4726562 c 0.5039063,0 2.7304688,0 2.7304688,-1.55859375 0,-0.7734375 -0.4921875,-1.4648438 -1.2890625,-2.203125 -1.1367188,-1.0195313 -1.1367188,-1.3476563 -1.1367188,-2.109375 0,-0.5507813 0.023437,-2.1328125 0.4453125,-3.46875 l 7.5585939,6.2460937 c 0.316406,0.2695313 1.183594,0.9609375 1.265625,2.5429688 0,0.19921875 0.02344,0.55078125 0.339844,0.55078125 0.28125,0 0.644531,-0.515625 0.84375,-1.04296875 0.199218,-0.515625 0.222656,-1.1835938 0.222656,-1.7109375 0,-1.8046875 -0.914063,-2.5546875 -2.824219,-4.1132813 z m 0,0"
       style="fill:#000000;fill-opacity:1;fill-rule:nonzero;stroke:none"
       aria-label="ℵ"
       transform="matrix(1.3333333,0,0,1.3333333,118.83467,540.48267)" />
    <path
       id="path19"
       d="m 15.667141,-15.890633 c 0.164062,-0.363281 0.164062,-0.445312 0.164062,-0.539062 0,-0.46875 -0.386719,-0.773438 -0.738281,-0.773438 -0.492188,0 -0.667969,0.375 -0.796875,0.667969 l -2.132813,4.757812 H 3.6671406 l -2.0859375,-4.675781 c -0.140625,-0.328125 -0.3164062,-0.75 -0.80859372,-0.75 -0.421875,0 -0.773437505,0.351563 -0.773437505,0.773438 0,0.140625 0.046875005,0.269531 0.152343755,0.46875 L 7.0890156,-0.31641406 c 0.1523438,0.3164062475001 0.3164063,0.73828125 0.8203125,0.73828125 0.4921875,0 0.6445313,-0.328125 0.8085938,-0.71484375 z m -11.3320316,5.625 h 7.1601566 l -3.5625004,8.0859377 z m 0,0"
       style="fill:#000000;fill-opacity:1;fill-rule:nonzero;stroke:none"
       aria-label="∀"
       transform="matrix(1.3333333,0,0,1.3333333,71.602667,654.72267)" />
    <path
       id="path20"
       d="m 15.891766,-5.1796562 c 0,0.6914062 0,2.0859375 -2.039063,3.1757812 -1.066406,0.5390625 -2.648437,0.9140625 -4.3593749,0.9140625 -1.7578125,0 -3.3398437,-0.3984375 -4.2890625,-0.890625 -2.0859375,-1.0898437 -2.109375,-2.4023437 -2.109375,-3.1992187 v -8.6718748 c 0,-0.375 0,-1.113281 -0.7382812,-1.113281 -0.7734375,0 -0.7734375,0.714843 -0.7734375,1.113281 v 8.7421873 c 0,4.31249995 4.7578125,5.53124995 7.9101562,5.53124995 3.1757809,0 7.9101559,-1.21875 7.9101559,-5.53124995 v -8.7421873 c 0,-0.375 0,-1.113281 -0.75,-1.113281 -0.761718,0 -0.761718,0.714843 -0.761718,1.113281 z m 0,0"
       style="fill:#000000;fill-opacity:1;fill-rule:nonzero;stroke:none"
       aria-label="∪"
       transform="matrix(1.3333333,0,0,1.3333333,69.490667,756.10933)" />
    <path
       id="path21"
       d="m 17.519078,-13.454055 c 0.351563,-0.304687 0.351563,-0.457031 0.351563,-0.550781 0,-0.46875 -0.445313,-0.492187 -0.492188,-0.492187 -0.175781,0 -0.257812,0.04687 -0.703125,0.445312 l -1.898437,1.652344 c -0.527344,-0.539063 -2.355469,-2.097656 -5.1328129,-2.097656 -3.9726562,0 -7.2890625,3.140625 -7.2890625,7.2539058 0,2.3320313 0.9609375,3.703125 1.4648438,4.4179688 -0.3984375,0.375 -0.421875,0.3984375 -1.8867188,1.6640625 -0.4921875,0.44531246 -0.5507812,0.49218746 -0.5507812,0.71484371 0,0.29296875 0.1992187,0.4921875 0.5039062,0.4921875 0.1757813,0 0.2226563,0 0.6679688,-0.421875 L 4.4878281,-2.0634297 c 0.2226563,0.2578125 2.0507813,2.10937501 5.1328125,2.10937501 4.2070314,0 7.2773434,-3.42187501 7.2773434,-7.25390621 0,-2.3085938 -0.984375,-3.7500001 -1.453125,-4.4179691 0.02344,-0.02344 0.164063,-0.152343 0.269532,-0.246093 z M 4.5581406,-3.4696797 C 3.3511094,-5.1806172 3.3511094,-6.6688984 3.3511094,-7.2079609 c 0,-3.5742191 2.8476562,-6.3046871 6.2695312,-6.3046871 2.6484374,0 4.1367184,1.511718 4.3828124,1.792968 z M 14.671422,-10.981398 c 0.820312,1.0898433 1.242187,2.3320308 1.242187,3.7382808 0,3.5742188 -2.847656,6.30468751 -6.2695309,6.30468751 -2.6601562,0 -4.1367187,-1.51171871 -4.3945312,-1.79296871 z m 0,0"
       style="fill:#000000;fill-opacity:1;fill-rule:nonzero;stroke:none"
       aria-label="∅"
       transform="matrix(1.3333333,0,0,1.3333333,25.414667,882.49733)" />
    <path
       id="path22"
       d="m 17.519859,-13.454227 c 0.351563,-0.304687 0.351563,-0.457031 0.351563,-0.550781 0,-0.46875 -0.445313,-0.492187 -0.492188,-0.492187 -0.175781,0 -0.257812,0.04687 -0.703125,0.445312 l -1.898437,1.652344 c -0.527344,-0.539063 -2.355469,-2.097656 -5.1328126,-2.097656 -3.9726563,0 -7.2890625,3.140625 -7.2890625,7.2539059 0,2.3320313 0.9609375,3.703125 1.4648437,4.4179688 -0.3984375,0.375 -0.421875,0.3984375 -1.8867187,1.6640625 -0.4921875,0.44531249 -0.5507813,0.49218749 -0.5507813,0.71484374 0,0.29296875 0.1992188,0.4921875 0.5039063,0.4921875 0.1757812,0 0.2226562,0 0.6679687,-0.421875 L 4.4886094,-2.0636016 c 0.2226562,0.2578125 2.0507812,2.10937504 5.1328125,2.10937504 4.2070311,0 7.2773441,-3.42187504 7.2773441,-7.25390624 0,-2.3085938 -0.984375,-3.7500002 -1.453125,-4.4179692 0.02344,-0.02344 0.164062,-0.152343 0.269531,-0.246093 z M 4.5589219,-3.4698516 C 3.3518906,-5.1807891 3.3518906,-6.6690703 3.3518906,-7.2081328 c 0,-3.5742192 2.8476563,-6.3046872 6.2695313,-6.3046872 2.6484371,0 4.1367191,1.511718 4.3828121,1.792968 z M 14.672203,-10.98157 c 0.820313,1.0898434 1.242188,2.3320309 1.242188,3.7382809 0,3.5742188 -2.847657,6.30468754 -6.2695316,6.30468754 -2.6601563,0 -4.1367188,-1.51171874 -4.3945313,-1.79296874 z m 0,0"
       style="fill:#000000;fill-opacity:1;fill-rule:nonzero;stroke:none"
       aria-label="∅"
       transform="matrix(1.3333333,0,0,1.3333333,26.148,881.396)" />
    <path
       id="path23"
       d="m 17.519641,-13.454055 c 0.351562,-0.304687 0.351562,-0.457031 0.351562,-0.550781 0,-0.46875 -0.445312,-0.492187 -0.492187,-0.492187 -0.175782,0 -0.257813,0.04687 -0.703125,0.445312 l -1.898438,1.652344 c -0.527344,-0.539063 -2.355469,-2.097656 -5.1328124,-2.097656 -3.9726562,0 -7.2890625,3.140625 -7.2890625,7.2539058 0,2.3320313 0.9609375,3.703125 1.4648438,4.4179688 -0.3984375,0.375 -0.421875,0.3984375 -1.8867188,1.6640625 -0.4921875,0.44531246 -0.5507812,0.49218746 -0.5507812,0.71484371 0,0.29296875 0.1992187,0.4921875 0.5039062,0.4921875 0.1757813,0 0.2226563,0 0.6679688,-0.421875 L 4.4883906,-2.0634297 c 0.2226563,0.2578125 2.0507813,2.10937501 5.1328125,2.10937501 4.2070309,0 7.2773439,-3.42187501 7.2773439,-7.25390621 0,-2.3085938 -0.984375,-3.7500001 -1.453125,-4.4179691 0.02344,-0.02344 0.164062,-0.152343 0.269531,-0.246093 z M 4.5587031,-3.4696797 C 3.3516719,-5.1806172 3.3516719,-6.6688984 3.3516719,-7.2079609 c 0,-3.5742191 2.8476562,-6.3046871 6.2695312,-6.3046871 2.6484379,0 4.1367189,1.511718 4.3828129,1.792968 z M 14.671984,-10.981398 c 0.820313,1.0898433 1.242188,2.3320308 1.242188,3.7382808 0,3.5742188 -2.847656,6.30468751 -6.2695314,6.30468751 -2.6601562,0 -4.1367187,-1.51171871 -4.3945312,-1.79296871 z m 0,0"
       style="fill:#000000;fill-opacity:1;fill-rule:nonzero;stroke:none"
       aria-label="∅"
       transform="matrix(1.3333333,0,0,1.3333333,26.882667,882.49733)" />
    <path
       id="path24"
       d="m 18.44557,-13.57043 c 0.152344,-0.269531 0.152344,-0.316406 0.152344,-0.351562 0,-0.246094 -0.210937,-0.246094 -0.585937,-0.246094 H 1.7580703 c -0.4804687,0 -0.5390625,0 -0.5976562,0.269531 l 7.78125,13.85156281 c 0.2578125,0.45703125 0.3984375,0.5625 0.9375,0.5625 0.6210939,0 0.7031249,-0.140625 0.9257809,-0.5390625 z M 5.6604141,-11.730586 H 16.160414 l -5.25,9.3164063 z m 0,0"
       style="fill:#000000;fill-opacity:1;fill-rule:nonzero;stroke:none"
       aria-label="∇"
       transform="matrix(1.3333333,0,0,1.3333333,70.152,861.34)" />
    <path
       id="path25"
       d="m 0,12.75595 c 1.1693,0 1.75395,1.70082 2.92326,1.70082 0.84656,0 1.57621,-0.83 2.33861,-1.70082 0.76239,-0.87079 1.49202,-1.7008 2.33861,-1.7008 0.84657,0 1.5762,0.83 2.33861,1.7008 0.7624,0.8708 1.49203,1.70082 2.33862,1.70082 0.84656,0 1.5762,-0.83 2.33861,-1.70082 0.76239,-0.87079 1.49202,-1.7008 2.33861,-1.7008 0.84657,0 1.5762,0.83 2.3386,1.7008 0.76241,0.8708 1.49204,1.70082 2.33863,1.70082 0.84655,0 1.57618,-0.83 2.3386,-1.70082 0.76239,-0.87079 1.49202,-1.7008 2.33861,-1.7008 1.16931,0 1.75395,1.7008 2.92327,1.7008 h -3.80896"
       style="fill:none;stroke:#000000;stroke-width:1.19553;stroke-linecap:butt;stroke-linejoin:miter;stroke-miterlimit:10;stroke-dasharray:none;stroke-opacity:1"
       transform="matrix(1.3333333,0,0,-1.3333333,62.565333,889.62)" />
    <path
       id="path26"
       d="M 4.86136,0 0.59775,2.60019 V 0 -2.60019 Z"
       style="fill:#000000;fill-opacity:1;fill-rule:nonzero;stroke:#000000;stroke-width:1.19553;stroke-linecap:butt;stroke-linejoin:miter;stroke-miterlimit:10;stroke-dasharray:none;stroke-opacity:1"
       transform="matrix(1.3333333,0,0,-1.3333333,96.065053,872.61207)" />
    <path
       id="path27"
       d="m 11.00774,-6.1950417 c 0,-2.65625 -2.2109379,-4.8125003 -4.8125004,-4.8125003 -2.671875,0 -4.828125,2.2109378 -4.828125,4.8125003 0,2.625 2.15625,4.8046875 4.828125,4.8046875 2.6015625,0 4.8125004,-2.15625 4.8125004,-4.8046875 z m -4.8125004,3.8125 c -2.15625,0 -3.84375,-1.734375 -3.84375,-3.8125 0,-2.0859375 1.7109375,-3.8203123 3.84375,-3.8203123 2.0625,0 3.8203124,1.6874998 3.8203124,3.8203123 0,2.1328125 -1.7578124,3.8125 -3.8203124,3.8125 z m 0,0"
       style="fill:#000000;fill-opacity:1;fill-rule:nonzero;stroke:none"
       aria-label="◦"
       transform="matrix(2,0,0,2,114.11733,883.92133)" />
    <path
       id="path28"
       d="m 14.742344,-7.8525859 c 0.351562,0 1.066406,0 1.066406,-0.75 0,-0.7617188 -0.785156,-0.7617188 -1.207031,-0.7617188 H 3.0939063 v -6.7265623 c 0,-0.363281 0,-1.113281 -0.7382813,-1.113281 -0.7734375,0 -0.7734375,0.773437 -0.7734375,1.113281 v 14.9765623 c 0,0.33984376 0,1.11328126 0.7734375,1.11328126 0.7382813,0 0.7382813,-0.7734375 0.7382813,-1.11328126 v -6.7382812 z m 0,0"
       style="fill:#000000;fill-opacity:1;fill-rule:nonzero;stroke:none"
       aria-label="`"
       transform="matrix(1.3333333,0,0,1.3333333,70.546667,991.16933)" />
  </g>
</svg>
