<?xml version="1.0" encoding="UTF-8" standalone="no"?>
<!-- Created with Inkscape (http://www.inkscape.org/) -->

<svg
   width="154.53966mm"
   height="173.19731mm"
   viewBox="0 0 154.53966 173.19731"
   version="1.1"
   id="svg1"
   xmlns:inkscape="http://www.inkscape.org/namespaces/inkscape"
   xmlns:sodipodi="http://sodipodi.sourceforge.net/DTD/sodipodi-0.dtd"
   xmlns="http://www.w3.org/2000/svg"
   xmlns:svg="http://www.w3.org/2000/svg">
  <sodipodi:namedview
     id="namedview1"
     pagecolor="#ffffff"
     bordercolor="#000000"
     borderopacity="0.25"
     inkscape:showpageshadow="2"
     inkscape:pageopacity="0.0"
     inkscape:pagecheckerboard="0"
     inkscape:deskcolor="#d1d1d1"
     inkscape:document-units="mm">
    <inkscape:page
       x="-8.9644316e-22"
       y="1.7928863e-21"
       width="154.53966"
       height="173.19731"
       id="page2"
       margin="0"
       bleed="0" />
  </sodipodi:namedview>
  <defs
     id="defs1" />
  <g
     inkscape:label="Layer 1"
     inkscape:groupmode="layer"
     id="layer1"
     transform="translate(-470.95832,-564.62084)">
    <g
       style="font-style:normal;font-weight:normal;font-size:12px;font-family:Dialog;color-interpolation:sRGB;fill:#ffffff;fill-opacity:1;stroke:#ffffff;stroke-width:1;stroke-linecap:square;stroke-linejoin:miter;stroke-miterlimit:10;stroke-dasharray:none;stroke-dashoffset:0;stroke-opacity:1;color-rendering:optimizeSpeed;image-rendering:optimizeSpeed;shape-rendering:crispEdges;text-rendering:optimizeSpeed"
       id="g2"
       transform="matrix(0.26458333,0,0,0.26458333,360.80885,553.40356)">
      <path
         style="stroke:none"
         d="m 453.85,663 h 546.3 V 56 h -546.3 z"
         id="path2" />
    </g>
    <g
       transform="matrix(0.26458333,0,0,0.26458333,553.16112,567.49262)"
       style="font-style:normal;font-weight:bold;font-size:11px;font-family:'Helvetica Neue';color-interpolation:linearRGB;fill:#000000;fill-opacity:1;stroke:#000000;stroke-width:1;stroke-linecap:square;stroke-linejoin:miter;stroke-miterlimit:10;stroke-dasharray:none;stroke-dashoffset:0;stroke-opacity:1;color-rendering:optimizeQuality;image-rendering:optimizeQuality;shape-rendering:auto;text-rendering:geometricPrecision"
       id="g3">
      <path
         style="stroke:none"
         d="M -39.241,-10.854 V -3 h 5.962 v -1.452 h -4.235 v -1.925 h 3.806 v -1.342 h -3.806 v -1.683 h 4.147 v -1.452 z m 8.415,4.862 -2.046,2.992 h 1.749 l 1.188,-1.793 1.188,1.793 h 1.782 l -2.101,-3.025 1.87,-2.662 h -1.727 l -0.99,1.485 -1.001,-1.485 h -1.782 z m 6.435,-2.695 v -1.705 h -1.562 v 1.705 h -0.946 v 1.045 h 0.946 v 3.355 q 0,0.429 0.143,0.693 0.143,0.264 0.3905,0.407 0.2475,0.143 0.572,0.1925 0.3245,0.0495 0.6875,0.0495 0.231,0 0.473,-0.011 0.242,-0.011 0.44,-0.044 v -1.21 q -0.11,0.022 -0.231,0.033 -0.121,0.011 -0.253,0.011 -0.396,0 -0.528,-0.132 -0.132,-0.132 -0.132,-0.528 v -2.816 h 1.144 v -1.045 z m 1.892,0 V -3 h 1.562 v -2.563 q 0,-0.385 0.077,-0.715 0.077,-0.33 0.2585,-0.5775 0.1815,-0.2475 0.4785,-0.3905 0.297,-0.143 0.726,-0.143 0.143,0 0.297,0.0165 0.154,0.0165 0.264,0.0385 v -1.452 q -0.187,-0.055 -0.341,-0.055 -0.297,0 -0.572,0.088 -0.275,0.088 -0.517,0.2475 -0.242,0.1595 -0.429,0.385 -0.187,0.2255 -0.297,0.4895 h -0.022 v -1.056 z m 8.107,2.233 h -2.541 q 0.011,-0.165 0.0715,-0.374 0.0605,-0.209 0.209,-0.396 0.1485,-0.187 0.396,-0.3135 0.2475,-0.1265 0.6215,-0.1265 0.572,0 0.8525,0.308 0.2805,0.308 0.3905,0.902 z m -2.541,0.99 h 4.103 q 0.044,-0.66 -0.11,-1.265 -0.154,-0.605 -0.5005,-1.078 -0.3465,-0.473 -0.8855,-0.7535 -0.539,-0.2805 -1.265,-0.2805 -0.649,0 -1.1825,0.231 -0.5335,0.231 -0.9185,0.6325 -0.385,0.4015 -0.594,0.9515 -0.209,0.55 -0.209,1.188 0,0.66 0.2035,1.21 0.2035,0.55 0.5775,0.946 0.374,0.396 0.913,0.6105 0.539,0.2145 1.21,0.2145 0.968,0 1.65,-0.44 0.682,-0.44 1.012,-1.463 h -1.375 q -0.077,0.264 -0.418,0.5005 -0.341,0.2365 -0.814,0.2365 -0.66,0 -1.012,-0.341 -0.352,-0.341 -0.385,-1.1 z m 5.071,-3.223 V -3 h 1.562 v -3.3 q 0,-0.418 0.121,-0.6765 0.121,-0.2585 0.2915,-0.396 0.1705,-0.1375 0.352,-0.187 0.1815,-0.0495 0.2915,-0.0495 0.374,0 0.5665,0.1265 0.1925,0.1265 0.275,0.3355 0.0825,0.209 0.0935,0.4565 0.011,0.2475 0.011,0.5005 V -3 h 1.562 v -3.168 q 0,-0.264 0.0385,-0.5225 0.0385,-0.2585 0.154,-0.462 0.1155,-0.2035 0.319,-0.33 0.2035,-0.1265 0.5335,-0.1265 0.33,0 0.5225,0.11 0.1925,0.11 0.2915,0.297 0.099,0.187 0.121,0.44 0.022,0.253 0.022,0.539 V -3 h 1.562 v -3.806 q 0,-0.55 -0.154,-0.9405 -0.154,-0.3905 -0.429,-0.6325 -0.275,-0.242 -0.66,-0.352 -0.385,-0.11 -0.836,-0.11 -0.594,0 -1.0285,0.286 -0.4345,0.286 -0.6875,0.66 -0.231,-0.528 -0.6765,-0.737 -0.4455,-0.209 -0.9845,-0.209 -0.561,0 -0.9955,0.242 -0.4345,0.242 -0.7425,0.682 h -0.022 v -0.77 z m 13.75,2.233 h -2.541 q 0.011,-0.165 0.0715,-0.374 0.0605,-0.209 0.209,-0.396 0.1485,-0.187 0.396,-0.3135 0.2475,-0.1265 0.6215,-0.1265 0.572,0 0.8525,0.308 0.2805,0.308 0.3905,0.902 z m -2.541,0.99 H 3.45 Q 3.494,-6.124 3.34,-6.729 3.186,-7.334 2.8395,-7.807 2.493,-8.28 1.954,-8.5605 1.415,-8.841 0.689,-8.841 q -0.649,0 -1.1825,0.231 -0.5335,0.231 -0.9185,0.6325 -0.385,0.4015 -0.594,0.9515 -0.209,0.55 -0.209,1.188 0,0.66 0.2035,1.21 0.2035,0.55 0.5775,0.946 0.374,0.396 0.913,0.6105 0.539,0.2145 1.21,0.2145 0.968,0 1.65,-0.44 0.682,-0.44 1.012,-1.463 H 1.976 q -0.077,0.264 -0.418,0.5005 -0.341,0.2365 -0.814,0.2365 -0.66,0 -1.012,-0.341 -0.352,-0.341 -0.385,-1.1 z m 10.956,1.441 q -0.374,0 -0.638,-0.154 Q 9.401,-4.331 9.2415,-4.5785 9.082,-4.826 9.0105,-5.156 8.939,-5.486 8.939,-5.827 q 0,-0.352 0.066,-0.682 0.066,-0.33 0.2255,-0.583 0.1595,-0.253 0.418,-0.4125 0.2585,-0.1595 0.6435,-0.1595 0.374,0 0.6325,0.1595 0.2585,0.1595 0.4235,0.418 0.165,0.2585 0.2365,0.5885 0.0715,0.33 0.0715,0.671 0,0.341 -0.066,0.671 -0.066,0.33 -0.2255,0.5775 -0.1595,0.2475 -0.418,0.4015 -0.2585,0.154 -0.6435,0.154 z M 7.432,-8.687 v 7.678 h 1.562 v -2.695 h 0.022 q 0.286,0.418 0.7315,0.6325 0.4455,0.2145 0.9735,0.2145 0.627,0 1.0945,-0.242 0.4675,-0.242 0.781,-0.649 0.3135,-0.407 0.4675,-0.935 0.154,-0.528 0.154,-1.1 0,-0.605 -0.154,-1.1605 -0.154,-0.5555 -0.473,-0.9735 -0.319,-0.418 -0.803,-0.671 -0.484,-0.253 -1.155,-0.253 -0.528,0 -0.968,0.209 -0.44,0.209 -0.726,0.671 H 8.917 v -0.726 z m 8.107,2.849 q 0,-0.341 0.066,-0.671 0.066,-0.33 0.2255,-0.583 0.1595,-0.253 0.4235,-0.4125 0.264,-0.1595 0.66,-0.1595 0.396,0 0.6655,0.1595 0.2695,0.1595 0.429,0.4125 0.1595,0.253 0.2255,0.583 0.066,0.33 0.066,0.671 0,0.341 -0.066,0.6655 -0.066,0.3245 -0.2255,0.583 -0.1595,0.2585 -0.429,0.4125 -0.2695,0.154 -0.6655,0.154 -0.396,0 -0.66,-0.154 Q 15.99,-4.331 15.8305,-4.5895 15.671,-4.848 15.605,-5.1725 15.539,-5.497 15.539,-5.838 Z m -1.562,0 q 0,0.682 0.209,1.232 0.209,0.55 0.594,0.9405 0.385,0.3905 0.924,0.5995 0.539,0.209 1.21,0.209 0.671,0 1.2155,-0.209 0.5445,-0.209 0.9295,-0.5995 0.385,-0.3905 0.594,-0.9405 0.209,-0.55 0.209,-1.232 0,-0.682 -0.209,-1.2375 -0.209,-0.5555 -0.594,-0.946 -0.385,-0.3905 -0.9295,-0.605 -0.5445,-0.2145 -1.2155,-0.2145 -0.671,0 -1.21,0.2145 -0.539,0.2145 -0.924,0.605 -0.385,0.3905 -0.594,0.946 -0.209,0.5555 -0.209,1.2375 z m 8.503,-3.729 v -1.287 h -1.562 v 1.287 z m -1.562,0.88 V -3 h 1.562 v -5.687 z m 2.794,0 V -3 h 1.562 v -2.981 q 0,-0.869 0.286,-1.2485 0.286,-0.3795 0.924,-0.3795 0.561,0 0.781,0.3465 0.22,0.3465 0.22,1.0505 V -3 h 1.562 v -3.498 q 0,-0.528 -0.0935,-0.9625 Q 28.86,-7.895 28.629,-8.1975 28.398,-8.5 27.9965,-8.6705 27.595,-8.841 26.968,-8.841 26.473,-8.841 26,-8.6155 25.527,-8.39 25.23,-7.895 h -0.033 v -0.792 z m 8.503,0 v -1.705 h -1.562 v 1.705 h -0.946 v 1.045 h 0.946 v 3.355 q 0,0.429 0.143,0.693 0.143,0.264 0.3905,0.407 0.2475,0.143 0.572,0.1925 0.3245,0.0495 0.6875,0.0495 0.231,0 0.473,-0.011 0.242,-0.011 0.44,-0.044 v -1.21 q -0.11,0.022 -0.231,0.033 -0.121,0.011 -0.253,0.011 -0.396,0 -0.528,-0.132 -0.132,-0.132 -0.132,-0.528 v -2.816 h 1.144 v -1.045 z m 3.102,3.839 h -1.485 q 0.022,0.572 0.2585,0.9515 0.2365,0.3795 0.605,0.6105 0.3685,0.231 0.8415,0.33 0.473,0.099 0.968,0.099 0.484,0 0.9515,-0.0935 0.4675,-0.0935 0.8305,-0.3245 0.363,-0.231 0.5885,-0.6105 0.2255,-0.3795 0.2255,-0.9405 0,-0.396 -0.154,-0.6655 Q 38.793,-5.761 38.54,-5.9425 38.287,-6.124 37.9625,-6.234 37.638,-6.344 37.297,-6.421 36.967,-6.498 36.648,-6.564 36.329,-6.63 36.0815,-6.7125 35.834,-6.795 35.68,-6.927 q -0.154,-0.132 -0.154,-0.341 0,-0.176 0.088,-0.2805 0.088,-0.1045 0.2145,-0.1595 0.1265,-0.055 0.2805,-0.0715 0.154,-0.0165 0.286,-0.0165 0.418,0 0.726,0.1595 0.308,0.1595 0.341,0.6105 h 1.485 Q 38.903,-7.554 38.6775,-7.9005 38.452,-8.247 38.111,-8.456 37.77,-8.665 37.3355,-8.753 36.901,-8.841 36.439,-8.841 q -0.462,0 -0.902,0.0825 -0.44,0.0825 -0.792,0.286 -0.352,0.2035 -0.5665,0.5555 -0.2145,0.352 -0.2145,0.902 0,0.374 0.154,0.6325 0.154,0.2585 0.407,0.429 0.253,0.1705 0.5775,0.275 0.3245,0.1045 0.6655,0.1815 0.836,0.176 1.3035,0.352 0.4675,0.176 0.4675,0.528 0,0.209 -0.099,0.3465 -0.099,0.1375 -0.2475,0.22 -0.1485,0.0825 -0.33,0.121 -0.1815,0.0385 -0.3465,0.0385 -0.231,0 -0.4455,-0.055 Q 35.856,-4.001 35.691,-4.1165 35.526,-4.232 35.4215,-4.4135 35.317,-4.595 35.317,-4.848 Z"
         id="path3" />
    </g>
    <g
       style="font-style:normal;font-weight:normal;font-size:12px;font-family:Dialog;color-interpolation:linearRGB;fill:#ff0000;fill-opacity:1;stroke:#ff0000;stroke-width:0.5;stroke-linecap:butt;stroke-linejoin:bevel;stroke-miterlimit:1;stroke-dasharray:10, 6;stroke-dashoffset:0;stroke-opacity:1;color-rendering:optimizeQuality;image-rendering:optimizeQuality;shape-rendering:auto;text-rendering:geometricPrecision"
       id="g6"
       transform="matrix(0.26458333,0,0,0.26458333,360.80885,553.40356)">
      <path
         d="m 453.8171,91.098 1.8019,6.7708 8.3609,30.4032 8.3609,29.3898 8.3609,28.3763 8.3608,27.3629 8.3609,26.3494 8.3609,25.336 8.3609,24.3226 8.3608,23.3091 8.3609,22.2957 8.3609,21.2823 8.3609,20.2687 8.3609,19.2554 8.3609,18.2419 8.3609,17.2285 8.3608,16.2151 8.3609,15.2016 8.3609,14.1881 8.3609,13.1748 8.3609,12.1612 8.3609,11.1479 8.3608,10.1344 8.3609,9.1209 8.3609,8.1076 8.3609,7.094 8.3609,6.0807 8.3609,5.0672 8.3608,4.0537 8.3609,3.0404 8.3609,2.0268 8.3608,1.0135 h 8.3609 l 8.3609,-1.0135 8.3609,-2.0268 8.3609,-3.0404 8.3609,-4.0537 8.3609,-5.0672 8.3608,-6.0807 8.3609,-7.094 8.3609,-8.1076 8.3609,-9.1209 8.3609,-10.1344 8.3609,-11.1479 8.3608,-12.1612 8.3609,-13.1748 8.3609,-14.1881 8.3608,-15.2016 8.3609,-16.2151 8.3609,-17.2285 8.3609,-18.2419 8.3609,-19.2554 8.3609,-20.2687 8.3608,-21.2823 8.3609,-22.2957 8.3609,-23.3091 8.3609,-24.3226 8.3609,-25.336 8.3609,-26.3494 8.3608,-27.3629 8.3609,-28.3763 8.3609,-29.3898 8.3609,-30.4032 8.3609,-31.4166 2.7031,-10.4851"
         style="fill:none;fill-rule:evenodd"
         id="path4" />
      <path
         d="m 453.8171,550.1448 1.8019,-1.8018 8.3609,-8.3609 8.3609,-8.3609 8.3609,-8.3609 8.3608,-8.3609 8.3609,-8.3609 8.3609,-8.3608 8.3609,-8.3609 8.3608,-8.3609 8.3609,-8.3609 8.3609,-8.3608 8.3609,-8.3609 8.3609,-8.3609 8.3609,-8.3609 8.3609,-8.3609 8.3608,-8.3609 8.3609,-8.3609 8.3609,-8.3608 8.3609,-8.3609 8.3609,-8.3609 8.3609,-8.3609 8.3608,-8.3608 8.3609,-8.3609 8.3609,-8.3609 8.3609,-8.3609 8.3609,-8.3609 8.3609,-8.3608 8.3608,-8.3609 8.3609,-8.3609 8.3609,-8.3609 8.3608,-8.3609 8.3609,-8.3609 8.3609,-8.3608 8.3609,-8.3609 8.3609,-8.3609 8.3609,-8.3609 8.3609,-8.3609 8.3608,-8.3609 8.3609,-8.3608 8.3609,-8.3609 8.3609,-8.3609 8.3609,-8.3609 8.3609,-8.3609 8.3608,-8.3608 8.3609,-8.3609 8.3609,-8.3609 8.3608,-8.3609 8.3609,-8.3609 8.3609,-8.3608 8.3609,-8.3609 8.3609,-8.3609 8.3609,-8.3609 8.3608,-8.3609 8.3609,-8.3608 8.3609,-8.361 8.3609,-8.3608 8.3609,-8.3609 8.3609,-8.3609 8.3608,-8.3609 7.4448,-7.4447"
         style="fill:none;fill-rule:evenodd;stroke:#0000ff"
         id="path5" />
      <path
         d="m 749.1661,55.9671 7.4447,7.4447 8.3608,8.3609 8.3609,8.3609 8.3609,8.3609 8.3609,8.3608 8.3609,8.361 8.3609,8.3608 8.3608,8.3609 8.3609,8.3609 8.3609,8.3609 8.3608,8.3609 8.3609,8.3608 8.3609,8.3609 8.3609,8.3609 8.3609,8.3609 8.3609,8.3609 8.3608,8.3608 8.3609,8.3609 8.3609,8.3609 8.3609,8.3609 8.3609,8.3609 8.3609,8.3608 8.3608,8.3609 8.3609,8.3609 8.3609,8.3609 8.3609,8.3609 8.3609,8.3609 8.3609,8.3608 8.3609,8.3609 8.3608,8.3609 1.1066,1.1066"
         style="fill:none;fill-rule:evenodd;stroke:#0000ff"
         id="path6" />
    </g>
    <g
       style="font-style:normal;font-weight:normal;font-size:12px;font-family:Dialog;color-interpolation:sRGB;fill:#ccffff;fill-opacity:1;stroke:#ccffff;stroke-width:1;stroke-linecap:square;stroke-linejoin:miter;stroke-miterlimit:10;stroke-dasharray:none;stroke-dashoffset:0;stroke-opacity:1;color-rendering:optimizeSpeed;image-rendering:optimizeSpeed;shape-rendering:crispEdges;text-rendering:optimizeSpeed"
       id="g7"
       transform="matrix(0.26458333,0,0,0.26458333,360.80885,553.40356)">
      <path
         style="stroke:none"
         d="m 649.7237,542.3589 0.8856,0.7763 0.8857,0.7649 0.8857,0.7536 0.8856,0.7421 0.8857,0.7308 0.8856,0.7195 0.8857,0.708 0.8857,0.6967 0.8856,0.6854 0.8857,0.6739 0.8856,0.6625 0.8857,0.6512 0.8856,0.6399 0.8857,0.6284 0.8856,0.6171 0.8857,0.6057 0.8856,0.5944 0.8857,0.583 0.8857,0.5716 0.8856,0.5602 0.8857,0.5488 0.8857,0.5375 0.8856,0.5261 0.8857,0.5148 0.8856,0.5034 0.8857,0.4919 0.8857,0.4807 0.8856,0.4692 0.8857,0.4579 0.8857,0.4465 0.8856,0.4351 0.8857,0.4238 0.8856,0.4124 0.8857,0.401 0.8856,0.3897 0.8857,0.3783 0.8856,0.3669 0.8857,0.3555 0.8856,0.3442 0.8857,0.3328 0.8857,0.3214 0.8856,0.3101 0.8857,0.2986 0.8857,0.2873 0.8856,0.2759 0.8857,0.2646 0.8856,0.2532 0.8857,0.2418 0.8857,0.2305 0.8856,0.219 0.8857,0.2077 0.8857,0.1964 0.8856,0.1849 0.8857,0.1736 0.8856,0.1622 0.8857,0.1509 0.8856,0.1395 0.8857,0.128 0.8856,0.1168 0.8857,0.1053 0.8856,0.094 0.8857,0.0827 0.8857,0.0712 0.8856,0.0599 0.8857,0.0485 0.8856,0.0371 0.8857,0.0258 0.8857,0.0143 0.8856,0.003 0.8857,-0.008 0.8857,-0.0198 0.8856,-0.031 0.8857,-0.0425 0.8857,-0.0538 0.8856,-0.0653 0.8857,-0.0766 0.8856,-0.0879 0.8857,-0.0993 0.8856,-0.1108 0.8857,-0.122 0.8856,-0.1335 0.8857,-0.1448 0.8856,-0.1562 0.8857,-0.1676 0.8856,-0.1789 0.8857,-0.1903 0.8857,-0.2017 0.8856,-0.213 0.8857,-0.2244 0.8857,-0.2359 0.8856,-0.2471 0.8857,-0.2586 0.8857,-0.2699 0.8856,-0.2813 0.8857,-0.2926 0.8856,-0.3041 0.8857,-0.3153 0.8856,-0.3268 0.8857,-0.3381 0.8857,-0.3495 0.8856,-0.3609 0.8857,-0.3723 0.8856,-0.3836 0.8857,-0.395 0.8856,-0.4064 0.8857,-0.4177 0.8856,-0.4291 0.8857,-0.4405 0.8857,-0.4519 0.8856,-0.4632 0.8857,-0.4746 0.8857,-0.486 0.8856,-0.4973 0.8857,-0.5087 0.8857,-0.5201 0.8856,-0.5315 0.8857,-0.5428 0.8856,-0.5542 0.8857,-0.5656 0.8856,-0.5769 0.8857,-0.5883 0.8856,-0.5998 0.8857,-0.611 0.8856,-0.6224 0.8857,-0.6339 0.8857,-0.6451 0.8856,-0.6566 0.8857,-0.6679 0.8856,-0.6793 0.8857,-0.6907 0.8857,-0.702 0.8856,-0.7134 0.8857,-0.7248 0.8857,-0.7361 0.8856,-0.7476 0.8857,-0.7588 0.8856,-0.7703 0.8857,-0.7817 0.8857,-0.7929 0.8856,-0.8044 0.8857,-0.8158 0.8856,-0.8271 0.8857,-0.8385 0.8856,-0.8499 0.8857,-0.8612 0.8856,-0.8726 0.8857,-0.884 0.8856,-0.8953 0.8857,-0.9068 0.8857,-0.9181 0.8856,-0.9295 0.8857,-0.9408 0.8857,-0.9522 0.8856,-0.9636 0.8857,-0.975 0.8856,-0.9863 0.8857,-0.9977 0.8857,-1.0091 0.8856,-1.0204 0.8857,-1.0318 0.8857,-1.0432 0.8856,-1.0545 0.8857,-1.066 0.8856,-1.0773 0.8857,-1.0887 0.8856,-1.1 0.8857,-1.1115 0.8856,-1.1227 0.8857,-1.1342 0.8856,-1.1455 0.8857,-1.1569 0.8857,-1.1683 0.8856,-1.1797 0.8857,-1.191 0.8857,-1.2024 0.8856,-1.2137 0.8857,-1.2252 0.8856,-1.2365 0.8857,-1.2479 0.8857,-1.2592 0.8856,-1.2706 0.8857,-1.282 0.8857,-1.2934 0.8856,-1.3047 0.8857,-1.3161 0.8856,-1.3275 0.8857,-1.3389 0.8856,-1.3502 0.8857,-1.3616 0.8856,-1.373 0.8857,-1.3843 0.8856,-1.3957 0.8857,-1.4071 0.8857,-1.4185 0.8856,-1.4298 0.8857,-1.4412 0.8856,-1.4525 0.8857,-1.464 0.8857,-1.4753 0.8856,-1.4867 0.8857,-1.498 0.8857,-1.5095 0.8856,-1.5208 0.8857,-1.5322 0.8856,-1.5435 0.8857,-1.5549 0.8857,-1.5663 0.8856,-1.5777 0.8857,-1.589 0.8856,-1.6004 0.8857,-1.6118 0.8856,-1.6231 0.8857,-1.6345 0.8856,-1.6459 0.8857,-1.6573 0.8856,-1.6686 0.8857,-1.68 0.8857,-1.6914 0.8856,-1.7028 0.8857,-1.7141 0.8857,-1.7255 0.8856,-1.7368 0.8857,-1.7482 0.8856,-1.7597 0.8857,-1.7709 0.8857,-1.7824 0.8856,-1.7937 0.8857,-1.8051 0.8857,-1.8164 0.8856,-1.8279 0.8857,-1.8392 0.8856,-1.8506 0.8857,-1.862 0.8856,-1.8733 0.8857,-1.8847 0.8856,-1.896 0.8857,-1.9075 0.8856,-1.9188 0.8857,-1.9302 0.8857,-1.9415 0.8856,-1.953 0.8857,-1.9642 0.8856,-1.9757 0.8857,-1.9871 0.8857,-1.9984 0.8856,-2.0098 0.8857,-2.0211 0.8857,-2.0325 0.8856,-2.044 0.8857,-2.0552 0.8856,-2.0667 0.8857,-2.078 0.8856,-2.0894 0.8857,-2.1007 0.8857,-2.1122 0.8856,-2.1235 0.8857,-2.1348 0.8856,-2.1463 0.8857,-2.1576 0.8856,-2.169 0.8857,-2.1803 0.8857,-2.1918 0.8856,-2.2031 0.8857,-2.2145 0.8857,-2.2258 0.8856,-2.2372 0.8857,-2.2486 0.8857,-2.26 0.8856,-2.2713 0.8857,-2.2828 0.8856,-2.294 0.8857,-2.3054 0.8856,-2.3169 0.8857,-2.3282 0.8856,-2.3395 0.8857,-2.351 0.8856,-2.3623 0.8857,-2.3737 0.8856,-2.385 0.8857,-2.3964 0.8857,-2.4078 0.8856,-2.4192 0.8857,-2.4305 0.8856,-2.442 0.8857,-2.4532 0.8857,-2.4647 0.8856,-2.476 0.8857,-2.4874 0.8857,-2.4988 0.8856,-2.5101 0.8857,-2.5215 0.8857,-2.5329 0.8856,-2.5443 0.8857,-2.5556 0.8856,-2.567 0.8857,-2.5784 0.8856,-2.5897 0.8857,-2.6012 0.8856,-2.6125 0.8857,-2.6238 0.8856,-2.6353 0.8857,-2.6466 0.8857,-2.6579 0.8856,-2.6694 0.8857,-2.6807 0.8857,-2.6921 0.8856,-2.7034 0.8857,-2.7149 0.8857,-2.7262 0.8856,-2.7376 0.8857,-2.7489 0.8856,-2.7603 -0.7825,-0.7825 -0.7825,-0.7825 -0.7825,-0.7825 -0.7826,-0.7826 -0.7824,-0.7825 -0.7826,-0.7825 -0.7825,-0.7825 -0.7825,-0.7825 -0.7825,-0.7825 -0.7825,-0.7825 -0.7825,-0.7825 -0.7825,-0.7826 -0.7826,-0.7825 -0.7824,-0.7825 -0.7826,-0.7825 -0.7825,-0.7825 -0.7825,-0.7825 -0.7825,-0.7825 -0.7825,-0.7826 -0.7825,-0.7825 -0.7825,-0.7825 -0.7826,-0.7825 -0.7825,-0.7825 -0.7825,-0.7825 -0.7825,-0.7825 -0.7825,-0.7826 -0.7825,-0.7825 -0.7825,-0.7825 -0.7826,-0.7825 -0.7824,-0.7825 -0.7826,-0.7825 -0.7825,-0.7825 -0.7825,-0.7825 -0.7825,-0.7826 -0.7825,-0.7825 -0.7826,-0.7825 -0.7824,-0.7825 -0.7826,-0.7825 -0.7825,-0.7825 -0.7825,-0.7825 -0.7825,-0.7825 -0.7825,-0.7825 -0.7825,-0.7826 -0.7825,-0.7825 -0.7826,-0.7825 -0.7825,-0.7825 -0.7825,-0.7825 -0.7825,-0.7825 -0.7825,-0.7825 -0.7825,-0.7825 -0.7825,-0.7826 -0.7826,-0.7825 -0.7825,-0.7825 -0.7825,-0.7825 -0.7825,-0.7825 -0.7825,-0.7825 -0.7825,-0.7825 -0.7825,-0.7825 -0.7825,-0.7825 -0.7826,-0.7826 -0.7825,-0.7825 -0.7825,-0.7825 -0.7825,-0.7825 -0.7825,-0.7825 -0.7825,-0.7825 -0.7825,-0.7825 -0.7826,-0.7825 -0.7825,-0.7826 -0.7825,-0.7825 -0.7825,-0.7825 -0.7825,-0.7825 -0.7825,-0.7825 -0.7825,-0.7825 -0.7826,-0.7825 -0.7824,-0.7826 -0.7826,-0.7825 -0.7825,-0.7825 -0.7825,-0.7825 -0.7825,-0.7825 -0.7825,-0.7825 -0.7826,-0.7825 -0.7824,-0.7826 -0.7826,-0.7825 -0.7825,-0.7825 -0.7825,-0.7825 -0.7825,-0.7825 -0.7825,-0.7825 -0.7825,-0.7825 -0.7825,-0.7826 -0.7826,-0.7825 -0.7824,-0.7825 -0.7826,-0.7825 -0.7825,-0.7825 -0.7825,-0.7825 -0.7825,-0.7825 -0.7825,-0.7826 -0.7825,-0.7825 -0.7825,-0.7825 -0.7826,-0.7825 -2.7869,2.787 -2.787,2.787 -2.787,2.7869 -2.7869,2.787 -2.787,2.7869 -2.7869,2.787 -2.787,2.787 -2.7869,2.7869 -2.787,2.787 -2.787,2.7869 -2.7869,2.787 -2.787,2.787 -2.7869,2.7869 -2.787,2.787 -2.7869,2.7869 -2.787,2.787 -2.787,2.787 -2.7869,2.7869 -2.787,2.787 -2.787,2.7869 -2.7869,2.787 -2.787,2.787 -2.787,2.7869 -2.7869,2.787 -2.787,2.7869 -2.787,2.787 -2.7869,2.787 -2.787,2.7869 -2.7869,2.787 -2.787,2.7869 -2.7869,2.787 -2.787,2.787 -2.7869,2.7869 -2.787,2.787 -2.787,2.7869 -2.7869,2.787 -2.787,2.787 -2.7869,2.7869 -2.787,2.787 -2.7869,2.787 -2.787,2.7869 -2.787,2.787 -2.787,2.7869 -2.7869,2.787 -2.787,2.787 -2.787,2.7869 -2.7869,2.787 -2.787,2.7869 -2.7869,2.787 -2.787,2.787 -2.787,2.7869 -2.7869,2.787 -2.787,2.7869 -2.7869,2.787 -2.787,2.787 -2.7869,2.7869 -2.787,2.787 -2.7869,2.7869 -2.787,2.787 -2.787,2.787 -2.7869,2.7869 -2.787,2.787 -2.7869,2.787 -2.787,2.7869 -2.787,2.787 -2.7869,2.7869 -2.787,2.787 -2.787,2.7869 -2.7869,2.787 -2.787,2.787 -2.787,2.7869 -2.7869,2.787 -2.787,2.787 -2.7869,2.7869 -2.787,2.787 -2.787,2.7869 -2.7869,2.787 -2.787,2.787 -2.7869,2.7869 -2.787,2.787 -2.7869,2.7869 -2.787,2.787 -2.7869,2.7869 -2.787,2.787 -2.787,2.787 -2.7869,2.7869 -2.787,2.787 -2.787,2.787 -2.7869,2.7869 -2.787,2.787 -2.787,2.7869 -2.7869,2.787 -2.787,2.7869 -2.787,2.787 -2.7869,2.787 -2.787,2.7869 -2.7869,2.787 -2.787,2.787 -2.7869,2.7869 0.8856,1.7656 0.8857,1.7543 0.8856,1.7429 0.8857,1.7315 0.8857,1.7202 0.8856,1.7087 0.8857,1.6974 0.8857,1.6861 0.8856,1.6746 0.8857,1.6633 0.8856,1.6519 0.8857,1.6406 0.8856,1.6291 0.8857,1.6178 0.8856,1.6065 0.8857,1.595 0.8856,1.5837 0.8857,1.5723 0.8857,1.561 0.8856,1.5495 0.8857,1.5382 0.8856,1.5269 0.8857,1.5154 0.8857,1.5041 0.8856,1.4927 0.8857,1.4813 0.8857,1.47 0.8856,1.4586 0.8857,1.4472 0.8856,1.4359 0.8857,1.4244 0.8857,1.4132 0.8856,1.4017 0.8857,1.3904 0.8856,1.3789 0.8857,1.3677 0.8856,1.3562 0.8857,1.3449 0.8856,1.3335 0.8857,1.3221 0.8857,1.3108 0.8856,1.2994 0.8857,1.288 0.8856,1.2767 0.8857,1.2652 0.8857,1.2539 0.8856,1.2426 0.8857,1.2311 0.8857,1.2198 0.8856,1.2084 0.8857,1.1971 0.8856,1.1856 0.8857,1.1744 0.8856,1.1629 0.8857,1.1515 0.8856,1.1402 0.8857,1.1288 0.8857,1.1175 0.8856,1.1061 0.8857,1.0946 0.8856,1.0834 0.8857,1.0719 0.8856,1.0606 0.8857,1.0492 0.8857,1.0378 0.8856,1.0265 0.8857,1.0151 0.8857,1.0037 0.8856,0.9924 0.8857,0.981 0.8856,0.9696 0.8857,0.9582 0.8857,0.9469 0.8856,0.9355 0.8857,0.9241 0.8856,0.9128 0.8857,0.9014 0.8856,0.8899 0.8857,0.8787 0.8856,0.8672 0.8857,0.8559 0.8856,0.8446 0.8857,0.8331 0.8857,0.8218 0.8856,0.8104 0.8857,0.799 z"
         id="path7" />
    </g>
    <g
       style="font-style:normal;font-weight:normal;font-size:12px;font-family:Dialog;color-interpolation:linearRGB;fill:#ff0000;fill-opacity:1;stroke:#ff0000;stroke-width:2;stroke-linecap:butt;stroke-linejoin:round;stroke-miterlimit:10;stroke-dasharray:none;stroke-dashoffset:0;stroke-opacity:1;color-rendering:optimizeQuality;image-rendering:optimizeQuality;shape-rendering:auto;text-rendering:geometricPrecision"
       id="g9"
       transform="matrix(0.26458333,0,0,0.26458333,360.80885,553.40356)">
      <path
         d="m 572.6714,431.2906 0.8856,1.7656 0.8857,1.7543 0.8856,1.7429 0.8857,1.7315 0.8857,1.7202 0.8856,1.7087 0.8857,1.6974 0.8857,1.6861 0.8856,1.6746 0.8857,1.6633 0.8856,1.6519 0.8857,1.6406 0.8856,1.6291 0.8857,1.6178 0.8856,1.6065 0.8857,1.595 0.8856,1.5837 0.8857,1.5723 0.8857,1.561 0.8856,1.5495 0.8857,1.5382 0.8856,1.5269 0.8857,1.5154 0.8857,1.5041 0.8856,1.4927 0.8857,1.4813 0.8857,1.47 0.8856,1.4586 0.8857,1.4472 0.8856,1.4359 0.8857,1.4244 0.8857,1.4132 0.8856,1.4017 0.8857,1.3904 0.8856,1.3789 0.8857,1.3677 0.8856,1.3562 0.8857,1.3449 0.8856,1.3335 0.8857,1.3221 0.8857,1.3108 0.8856,1.2994 0.8857,1.288 0.8856,1.2767 0.8857,1.2652 0.8857,1.2539 0.8856,1.2426 0.8857,1.2311 0.8857,1.2198 0.8856,1.2084 0.8857,1.1971 0.8856,1.1856 0.8857,1.1744 0.8856,1.1629 0.8857,1.1515 0.8856,1.1402 0.8857,1.1288 0.8857,1.1175 0.8856,1.1061 0.8857,1.0946 0.8856,1.0834 0.8857,1.0719 0.8856,1.0606 0.8857,1.0492 0.8857,1.0378 0.8856,1.0265 0.8857,1.0151 0.8857,1.0037 0.8856,0.9924 0.8857,0.981 0.8856,0.9696 0.8857,0.9582 0.8857,0.9469 0.8856,0.9355 0.8857,0.9241 0.8856,0.9128 0.8857,0.9014 0.8856,0.8899 0.8857,0.8787 0.8856,0.8672 0.8857,0.8559 0.8856,0.8446 0.8857,0.8331 0.8857,0.8218 0.8856,0.8104 0.8857,0.799 0.8857,0.7877 0.8856,0.7763 0.8857,0.7649 0.8857,0.7536 0.8856,0.7421 0.8857,0.7308 0.8856,0.7195 0.8857,0.708 0.8857,0.6967 0.8856,0.6854 0.8857,0.6739 0.8856,0.6625 0.8857,0.6512 0.8856,0.6399 0.8857,0.6284 0.8856,0.6171 0.8857,0.6057 0.8856,0.5944 0.8857,0.583 0.8857,0.5716 0.8856,0.5602 0.8857,0.5488 0.8857,0.5375 0.8856,0.5261 0.8857,0.5148 0.8856,0.5034 0.8857,0.4919 0.8857,0.4807 0.8856,0.4692 0.8857,0.4579 0.8857,0.4465 0.8856,0.4351 0.8857,0.4238 0.8856,0.4124 0.8857,0.401 0.8856,0.3897 0.8857,0.3783 0.8856,0.3669 0.8857,0.3555 0.8856,0.3442 0.8857,0.3328 0.8857,0.3214 0.8856,0.3101 0.8857,0.2986 0.8857,0.2873 0.8856,0.2759 0.8857,0.2646 0.8856,0.2532 0.8857,0.2418 0.8857,0.2305 0.8856,0.219 0.8857,0.2077 0.8857,0.1964 0.8856,0.1849 0.8857,0.1736 0.8856,0.1622 0.8857,0.1509 0.8856,0.1395 0.8857,0.128 0.8856,0.1168 0.8857,0.1053 0.8856,0.094 0.8857,0.0827 0.8857,0.0712 0.8856,0.0599 0.8857,0.0485 0.8856,0.0371 0.8857,0.0258 0.8857,0.0143 0.8856,0.003 0.8857,-0.008 0.8857,-0.0198 0.8856,-0.031 0.8857,-0.0425 0.8857,-0.0538 0.8856,-0.0653 0.8857,-0.0766 0.8856,-0.0879 0.8857,-0.0993 0.8856,-0.1108 0.8857,-0.122 0.8856,-0.1335 0.8857,-0.1448 0.8856,-0.1562 0.8857,-0.1676 0.8856,-0.1789 0.8857,-0.1903 0.8857,-0.2017 0.8856,-0.213 0.8857,-0.2244 0.8857,-0.2359 0.8856,-0.2471 0.8857,-0.2586 0.8857,-0.2699 0.8856,-0.2813 0.8857,-0.2926 0.8856,-0.3041 0.8857,-0.3153 0.8856,-0.3268 0.8857,-0.3381 0.8857,-0.3495 0.8856,-0.3609 0.8857,-0.3723 0.8856,-0.3836 0.8857,-0.395 0.8856,-0.4064 0.8857,-0.4177 0.8856,-0.4291 0.8857,-0.4405 0.8857,-0.4519 0.8856,-0.4632 0.8857,-0.4746 0.8857,-0.486 0.8856,-0.4973 0.8857,-0.5087 0.8857,-0.5201 0.8856,-0.5315 0.8857,-0.5428 0.8856,-0.5542 0.8857,-0.5656 0.8856,-0.5769 0.8857,-0.5883 0.8856,-0.5998 0.8857,-0.611 0.8856,-0.6224 0.8857,-0.6339 0.8857,-0.6451 0.8856,-0.6566 0.8857,-0.6679 0.8856,-0.6793 0.8857,-0.6907 0.8857,-0.702 0.8856,-0.7134 0.8857,-0.7248 0.8857,-0.7361 0.8856,-0.7476 0.8857,-0.7588 0.8856,-0.7703 0.8857,-0.7817 0.8857,-0.7929 0.8856,-0.8044 0.8857,-0.8158 0.8856,-0.8271 0.8857,-0.8385 0.8856,-0.8499 0.8857,-0.8612 0.8856,-0.8726 0.8857,-0.884 0.8856,-0.8953 0.8857,-0.9068 0.8857,-0.9181 0.8856,-0.9295 0.8857,-0.9408 0.8857,-0.9522 0.8856,-0.9636 0.8857,-0.975 0.8856,-0.9863 0.8857,-0.9977 0.8857,-1.0091 0.8856,-1.0204 0.8857,-1.0318 0.8857,-1.0432 0.8856,-1.0545 0.8857,-1.066 0.8856,-1.0773 0.8857,-1.0887 0.8856,-1.1 0.8857,-1.1115 0.8856,-1.1227 0.8857,-1.1342 0.8856,-1.1455 0.8857,-1.1569 0.8857,-1.1683 0.8856,-1.1797 0.8857,-1.191 0.8857,-1.2024 0.8856,-1.2137 0.8857,-1.2252 0.8856,-1.2365 0.8857,-1.2479 0.8857,-1.2592 0.8856,-1.2706 0.8857,-1.282 0.8857,-1.2934 0.8856,-1.3047 0.8857,-1.3161 0.8856,-1.3275 0.8857,-1.3389 0.8856,-1.3502 0.8857,-1.3616 0.8856,-1.373 0.8857,-1.3843 0.8856,-1.3957 0.8857,-1.4071 0.8857,-1.4185 0.8856,-1.4298 0.8857,-1.4412 0.8856,-1.4525 0.8857,-1.464 0.8857,-1.4753 0.8856,-1.4867 0.8857,-1.498 0.8857,-1.5095 0.8856,-1.5208 0.8857,-1.5322 0.8856,-1.5435 0.8857,-1.5549 0.8857,-1.5663 0.8856,-1.5777 0.8857,-1.589 0.8856,-1.6004 0.8857,-1.6118 0.8856,-1.6231 0.8857,-1.6345 0.8856,-1.6459 0.8857,-1.6573 0.8856,-1.6686 0.8857,-1.68 0.8857,-1.6914 0.8856,-1.7028 0.8857,-1.7141 0.8857,-1.7255 0.8856,-1.7368 0.8857,-1.7482 0.8856,-1.7597 0.8857,-1.7709 0.8857,-1.7824 0.8856,-1.7937 0.8857,-1.8051 0.8857,-1.8164 0.8856,-1.8279 0.8857,-1.8392 0.8856,-1.8506 0.8857,-1.862 0.8856,-1.8733 0.8857,-1.8847 0.8856,-1.896 0.8857,-1.9075 0.8856,-1.9188 0.8857,-1.9302 0.8857,-1.9415 0.8856,-1.953 0.8857,-1.9642 0.8856,-1.9757 0.8857,-1.9871 0.8857,-1.9984 0.8856,-2.0098 0.8857,-2.0211 0.8857,-2.0325 0.8856,-2.044 0.8857,-2.0552 0.8856,-2.0667 0.8857,-2.078 0.8856,-2.0894 0.8857,-2.1007 0.8857,-2.1122 0.8856,-2.1235 0.8857,-2.1348 0.8856,-2.1463 0.8857,-2.1576 0.8856,-2.169 0.8857,-2.1803 0.8857,-2.1918 0.8856,-2.2031 0.8857,-2.2145 0.8857,-2.2258 0.8856,-2.2372 0.8857,-2.2486 0.8857,-2.26 0.8856,-2.2713 0.8857,-2.2828 0.8856,-2.294 0.8857,-2.3054 0.8856,-2.3169 0.8857,-2.3282 0.8856,-2.3395 0.8857,-2.351 0.8856,-2.3623 0.8857,-2.3737 0.8856,-2.385 0.8857,-2.3964 0.8857,-2.4078 0.8856,-2.4192 0.8857,-2.4305 0.8856,-2.442 0.8857,-2.4532 0.8857,-2.4647 0.8856,-2.476 0.8857,-2.4874 0.8857,-2.4988 0.8856,-2.5101 0.8857,-2.5215 0.8857,-2.5329 0.8856,-2.5443 0.8857,-2.5556 0.8856,-2.567 0.8857,-2.5784 0.8856,-2.5897 0.8857,-2.6012 0.8856,-2.6125 0.8857,-2.6238 0.8856,-2.6353 0.8857,-2.6466 0.8857,-2.6579 0.8856,-2.6694 0.8857,-2.6807 0.8857,-2.6921 0.8856,-2.7034 0.8857,-2.7149 0.8857,-2.7262 0.8856,-2.7376 0.8857,-2.7489 0.8856,-2.7603"
         style="fill:none;fill-rule:evenodd"
         id="path8" />
      <path
         d="m 572.6714,431.2906 2.7869,-2.7869 2.787,-2.787 2.7869,-2.787 2.787,-2.7869 2.7869,-2.787 2.787,-2.787 2.787,-2.7869 2.7869,-2.787 2.787,-2.7869 2.787,-2.787 2.7869,-2.7869 2.787,-2.787 2.787,-2.787 2.7869,-2.7869 2.787,-2.787 2.787,-2.787 2.7869,-2.7869 2.787,-2.787 2.7869,-2.7869 2.787,-2.787 2.7869,-2.7869 2.787,-2.787 2.7869,-2.787 2.787,-2.7869 2.787,-2.787 2.7869,-2.7869 2.787,-2.787 2.7869,-2.787 2.787,-2.7869 2.787,-2.787 2.7869,-2.787 2.787,-2.7869 2.787,-2.787 2.7869,-2.7869 2.787,-2.787 2.787,-2.7869 2.7869,-2.787 2.787,-2.787 2.7869,-2.7869 2.787,-2.787 2.787,-2.787 2.7869,-2.7869 2.787,-2.787 2.7869,-2.7869 2.787,-2.787 2.7869,-2.787 2.787,-2.7869 2.7869,-2.787 2.787,-2.7869 2.787,-2.787 2.7869,-2.787 2.787,-2.7869 2.7869,-2.787 2.787,-2.7869 2.787,-2.787 2.7869,-2.787 2.787,-2.7869 2.787,-2.787 2.787,-2.7869 2.7869,-2.787 2.787,-2.787 2.7869,-2.7869 2.787,-2.787 2.7869,-2.787 2.787,-2.7869 2.787,-2.787 2.7869,-2.7869 2.787,-2.787 2.7869,-2.787 2.787,-2.7869 2.7869,-2.787 2.787,-2.7869 2.7869,-2.787 2.787,-2.787 2.787,-2.7869 2.7869,-2.787 2.787,-2.7869 2.787,-2.787 2.7869,-2.787 2.787,-2.7869 2.787,-2.787 2.7869,-2.7869 2.787,-2.787 2.787,-2.787 2.7869,-2.7869 2.787,-2.787 2.7869,-2.7869 2.787,-2.787 2.7869,-2.787 2.787,-2.7869 2.787,-2.787 2.7869,-2.7869 2.787,-2.787 2.7869,-2.787 2.787,-2.7869 2.7869,-2.787 2.787,-2.7869 2.787,-2.787 2.7869,-2.787 v 0 l 0.7826,0.7825 0.7825,0.7825 0.7825,0.7825 0.7825,0.7826 0.7825,0.7825 0.7825,0.7825 0.7825,0.7825 0.7826,0.7825 0.7824,0.7825 0.7826,0.7825 0.7825,0.7826 0.7825,0.7825 0.7825,0.7825 0.7825,0.7825 0.7825,0.7825 0.7825,0.7825 0.7826,0.7825 0.7824,0.7826 0.7826,0.7825 0.7825,0.7825 0.7825,0.7825 0.7825,0.7825 0.7825,0.7825 0.7826,0.7825 0.7824,0.7826 0.7826,0.7825 0.7825,0.7825 0.7825,0.7825 0.7825,0.7825 0.7825,0.7825 0.7825,0.7825 0.7825,0.7826 0.7826,0.7825 0.7825,0.7825 0.7825,0.7825 0.7825,0.7825 0.7825,0.7825 0.7825,0.7825 0.7825,0.7825 0.7826,0.7826 0.7825,0.7825 0.7825,0.7825 0.7825,0.7825 0.7825,0.7825 0.7825,0.7825 0.7825,0.7825 0.7825,0.7825 0.7826,0.7825 0.7825,0.7826 0.7825,0.7825 0.7825,0.7825 0.7825,0.7825 0.7825,0.7825 0.7825,0.7825 0.7826,0.7825 0.7825,0.7825 0.7825,0.7826 0.7825,0.7825 0.7825,0.7825 0.7825,0.7825 0.7825,0.7825 0.7826,0.7825 0.7824,0.7825 0.7826,0.7825 0.7825,0.7825 0.7825,0.7826 0.7825,0.7825 0.7825,0.7825 0.7826,0.7825 0.7824,0.7825 0.7826,0.7825 0.7825,0.7825 0.7825,0.7825 0.7825,0.7826 0.7825,0.7825 0.7825,0.7825 0.7825,0.7825 0.7826,0.7825 0.7825,0.7825 0.7825,0.7825 0.7825,0.7826 0.7825,0.7825 0.7825,0.7825 0.7825,0.7825 0.7826,0.7825 0.7824,0.7825 0.7826,0.7825 0.7825,0.7826 0.7825,0.7825 0.7825,0.7825 0.7825,0.7825 0.7825,0.7825 0.7825,0.7825 0.7826,0.7825 0.7824,0.7825 0.7826,0.7826 0.7825,0.7825 0.7825,0.7825 0.7825,0.7825"
         style="fill:none;fill-rule:evenodd;stroke:#0000ff;stroke-width:1.5"
         id="path9" />
    </g>
    <g
       transform="matrix(0.26458333,0,0,0.26458333,512.32816,667.51586)"
       style="font-style:normal;font-weight:normal;font-size:12px;font-family:Dialog;color-interpolation:linearRGB;fill:#ff0000;fill-opacity:1;stroke:#ff0000;stroke-width:1;stroke-linecap:square;stroke-linejoin:miter;stroke-miterlimit:10;stroke-dasharray:none;stroke-dashoffset:0;stroke-opacity:1;color-rendering:optimizeQuality;image-rendering:optimizeQuality;shape-rendering:auto;text-rendering:geometricPrecision"
       id="g10">
      <circle
         r="3"
         style="stroke:none"
         cx="0"
         cy="0"
         id="circle9" />
    </g>
    <g
       transform="matrix(0.26458333,0,0,0.26458333,512.32816,667.51586)"
       style="font-style:normal;font-weight:normal;font-size:12px;font-family:Dialog;color-interpolation:linearRGB;fill:#ff0000;fill-opacity:1;stroke:#ff0000;stroke-width:1.5;stroke-linecap:butt;stroke-linejoin:round;stroke-miterlimit:10;stroke-dasharray:none;stroke-dashoffset:0;stroke-opacity:1;color-rendering:optimizeQuality;image-rendering:optimizeQuality;shape-rendering:auto;text-rendering:geometricPrecision"
       id="g11">
      <path
         style="stroke:none"
         d="m 0,-2.75 c 1.5188,0 2.75,1.2312 2.75,2.75 V 0 C 2.75,1.5188 1.5188,2.75 0,2.75 -1.5188,2.75 -2.75,1.5188 -2.75,0 c 0,-1.5188 1.2312,-2.75 2.75,-2.75 z m 0,-0.5 c -1.7949,0 -3.25,1.4551 -3.25,3.25 0,1.7949 1.4551,3.25 3.25,3.25 C 1.7949,3.25 3.25,1.7949 3.25,0 V 0 C 3.25,-1.7949 1.7949,-3.25 0,-3.25 Z"
         id="path10" />
    </g>
    <g
       transform="matrix(0.26458333,0,0,0.26458333,585.32908,594.51491)"
       style="font-style:normal;font-weight:normal;font-size:12px;font-family:Dialog;color-interpolation:linearRGB;fill:#ff0000;fill-opacity:1;stroke:#ff0000;stroke-width:1;stroke-linecap:square;stroke-linejoin:miter;stroke-miterlimit:10;stroke-dasharray:none;stroke-dashoffset:0;stroke-opacity:1;color-rendering:optimizeQuality;image-rendering:optimizeQuality;shape-rendering:auto;text-rendering:geometricPrecision"
       id="g12">
      <circle
         r="3"
         style="stroke:none"
         cx="0"
         cy="0"
         id="circle11" />
    </g>
    <g
       transform="matrix(0.26458333,0,0,0.26458333,585.32908,594.51491)"
       style="font-style:normal;font-weight:normal;font-size:12px;font-family:Dialog;color-interpolation:linearRGB;fill:#ff0000;fill-opacity:1;stroke:#ff0000;stroke-width:1.5;stroke-linecap:butt;stroke-linejoin:round;stroke-miterlimit:10;stroke-dasharray:none;stroke-dashoffset:0;stroke-opacity:1;color-rendering:optimizeQuality;image-rendering:optimizeQuality;shape-rendering:auto;text-rendering:geometricPrecision"
       id="g13">
      <path
         style="stroke:none"
         d="m 0,-2.75 c 1.5188,0 2.75,1.2312 2.75,2.75 V 0 C 2.75,1.5188 1.5188,2.75 0,2.75 -1.5188,2.75 -2.75,1.5188 -2.75,0 c 0,-1.5188 1.2312,-2.75 2.75,-2.75 z m 0,-0.5 c -1.7949,0 -3.25,1.4551 -3.25,3.25 0,1.7949 1.4551,3.25 3.25,3.25 C 1.7949,3.25 3.25,1.7949 3.25,0 V 0 C 3.25,-1.7949 1.7949,-3.25 0,-3.25 Z"
         id="path12" />
    </g>
    <g
       transform="matrix(0.26458333,0,0,0.26458333,605.82603,615.01187)"
       style="font-style:normal;font-weight:normal;font-size:12px;font-family:Dialog;color-interpolation:linearRGB;fill:#ff0000;fill-opacity:1;stroke:#ff0000;stroke-width:1;stroke-linecap:square;stroke-linejoin:miter;stroke-miterlimit:10;stroke-dasharray:none;stroke-dashoffset:0;stroke-opacity:1;color-rendering:optimizeQuality;image-rendering:optimizeQuality;shape-rendering:auto;text-rendering:geometricPrecision"
       id="g14">
      <circle
         r="3"
         style="stroke:none"
         cx="0"
         cy="0"
         id="circle13" />
    </g>
    <g
       transform="matrix(0.26458333,0,0,0.26458333,605.82603,615.01187)"
       style="font-style:normal;font-weight:normal;font-size:12px;font-family:Dialog;color-interpolation:linearRGB;fill:#ff0000;fill-opacity:1;stroke:#ff0000;stroke-width:1.5;stroke-linecap:butt;stroke-linejoin:round;stroke-miterlimit:10;stroke-dasharray:none;stroke-dashoffset:0;stroke-opacity:1;color-rendering:optimizeQuality;image-rendering:optimizeQuality;shape-rendering:auto;text-rendering:geometricPrecision"
       id="g15">
      <path
         style="stroke:none"
         d="m 0,-2.75 c 1.5188,0 2.75,1.2312 2.75,2.75 V 0 C 2.75,1.5188 1.5188,2.75 0,2.75 -1.5188,2.75 -2.75,1.5188 -2.75,0 c 0,-1.5188 1.2312,-2.75 2.75,-2.75 z m 0,-0.5 c -1.7949,0 -3.25,1.4551 -3.25,3.25 0,1.7949 1.4551,3.25 3.25,3.25 C 1.7949,3.25 3.25,1.7949 3.25,0 V 0 C 3.25,-1.7949 1.7949,-3.25 0,-3.25 Z"
         id="path14" />
    </g>
    <g
       transform="matrix(0.26458333,0,0,0.26458333,507.6526,671.67231)"
       style="font-style:normal;font-weight:normal;font-size:11px;font-family:'Helvetica Neue';color-interpolation:linearRGB;fill:#000000;fill-opacity:1;stroke:#000000;stroke-width:1;stroke-linecap:square;stroke-linejoin:miter;stroke-miterlimit:10;stroke-dasharray:none;stroke-dashoffset:0;stroke-opacity:1;color-rendering:optimizeQuality;image-rendering:optimizeQuality;shape-rendering:auto;text-rendering:geometricPrecision"
       id="g16">
      <path
         style="stroke:none"
         d="M 2.233,-2.992 0.099,0 H 1.232 L 2.816,-2.354 4.4,0 h 1.199 l -2.2,-3.069 1.958,-2.618 H 4.235 L 2.816,-3.696 1.452,-5.687 H 0.253 Z"
         id="path15" />
    </g>
    <g
       transform="matrix(0.26458333,0,0,0.26458333,509.2401,672.99523)"
       style="font-style:normal;font-weight:normal;font-size:8.8px;font-family:'Helvetica Neue';color-interpolation:linearRGB;fill:#000000;fill-opacity:1;stroke:#000000;stroke-width:1;stroke-linecap:square;stroke-linejoin:miter;stroke-miterlimit:10;stroke-dasharray:none;stroke-dashoffset:0;stroke-opacity:1;color-rendering:optimizeQuality;image-rendering:optimizeQuality;shape-rendering:auto;text-rendering:geometricPrecision"
       id="g17">
      <path
         style="stroke:none"
         d="m 3.1328,0 v -6.2392 h -0.572 q -0.0616,0.352 -0.2288,0.5808 -0.1672,0.2288 -0.4092,0.3608 -0.242,0.132 -0.5412,0.1804 -0.2992,0.0484 -0.616,0.0484 v 0.5984 H 2.3848 V 0 Z"
         id="path16" />
    </g>
    <g
       transform="matrix(0.26458333,0,0,0.26458333,587.0276,591.50356)"
       style="font-style:normal;font-weight:normal;font-size:11px;font-family:'Helvetica Neue';color-interpolation:linearRGB;fill:#000000;fill-opacity:1;stroke:#000000;stroke-width:1;stroke-linecap:square;stroke-linejoin:miter;stroke-miterlimit:10;stroke-dasharray:none;stroke-dashoffset:0;stroke-opacity:1;color-rendering:optimizeQuality;image-rendering:optimizeQuality;shape-rendering:auto;text-rendering:geometricPrecision"
       id="g18">
      <path
         style="stroke:none"
         d="M 2.233,-2.992 0.099,0 H 1.232 L 2.816,-2.354 4.4,0 h 1.199 l -2.2,-3.069 1.958,-2.618 H 4.235 L 2.816,-3.696 1.452,-5.687 H 0.253 Z"
         id="path17" />
    </g>
    <g
       transform="matrix(0.26458333,0,0,0.26458333,588.6151,592.82648)"
       style="font-style:normal;font-weight:normal;font-size:8.8px;font-family:'Helvetica Neue';color-interpolation:linearRGB;fill:#000000;fill-opacity:1;stroke:#000000;stroke-width:1;stroke-linecap:square;stroke-linejoin:miter;stroke-miterlimit:10;stroke-dasharray:none;stroke-dashoffset:0;stroke-opacity:1;color-rendering:optimizeQuality;image-rendering:optimizeQuality;shape-rendering:auto;text-rendering:geometricPrecision"
       id="g19">
      <path
         style="stroke:none"
         d="m 0.3872,-4.0304 h 0.748 q -0.0088,-0.2816 0.0572,-0.5588 0.066,-0.2772 0.2156,-0.4972 0.1496,-0.22 0.3828,-0.3564 0.2332,-0.1364 0.5588,-0.1364 0.2464,0 0.4664,0.0792 0.22,0.0792 0.3828,0.2288 0.1628,0.1496 0.2596,0.3564 0.0968,0.2068 0.0968,0.462 0,0.3256 -0.1012,0.572 -0.1012,0.2464 -0.2992,0.4576 -0.198,0.2112 -0.4972,0.418 Q 2.3584,-2.7984 1.9624,-2.552 1.6368,-2.3584 1.3376,-2.1384 1.0384,-1.9184 0.8008,-1.628 0.5632,-1.3376 0.4092,-0.946 0.2552,-0.5544 0.2112,0 H 4.2856 V -0.66 H 1.0824 q 0.0528,-0.2904 0.2244,-0.5148 0.1716,-0.2244 0.4136,-0.418 0.242,-0.1936 0.5324,-0.3652 0.2904,-0.1716 0.5808,-0.3476 0.2904,-0.1848 0.5632,-0.3872 0.2728,-0.2024 0.484,-0.4532 0.2112,-0.2508 0.3388,-0.5676 0.1276,-0.3168 0.1276,-0.7304 0,-0.44 -0.154,-0.7744 -0.154,-0.3344 -0.418,-0.5588 -0.264,-0.2244 -0.6204,-0.3432 -0.3564,-0.1188 -0.7612,-0.1188 -0.4928,0 -0.88,0.1672 -0.3872,0.1672 -0.6468,0.462 -0.2596,0.2948 -0.3828,0.6996 -0.1232,0.4048 -0.0968,0.88 z"
         id="path18" />
    </g>
    <g
       transform="matrix(0.26458333,0,0,0.26458333,607.6651,617.43273)"
       style="font-style:normal;font-weight:normal;font-size:11px;font-family:'Helvetica Neue';color-interpolation:linearRGB;fill:#000000;fill-opacity:1;stroke:#000000;stroke-width:1;stroke-linecap:square;stroke-linejoin:miter;stroke-miterlimit:10;stroke-dasharray:none;stroke-dashoffset:0;stroke-opacity:1;color-rendering:optimizeQuality;image-rendering:optimizeQuality;shape-rendering:auto;text-rendering:geometricPrecision"
       id="g20">
      <path
         style="stroke:none"
         d="M 2.233,-2.992 0.099,0 H 1.232 L 2.816,-2.354 4.4,0 h 1.199 l -2.2,-3.069 1.958,-2.618 H 4.235 L 2.816,-3.696 1.452,-5.687 H 0.253 Z"
         id="path19" />
    </g>
    <g
       transform="matrix(0.26458333,0,0,0.26458333,609.2526,618.75564)"
       style="font-style:normal;font-weight:normal;font-size:8.8px;font-family:'Helvetica Neue';color-interpolation:linearRGB;fill:#000000;fill-opacity:1;stroke:#000000;stroke-width:1;stroke-linecap:square;stroke-linejoin:miter;stroke-miterlimit:10;stroke-dasharray:none;stroke-dashoffset:0;stroke-opacity:1;color-rendering:optimizeQuality;image-rendering:optimizeQuality;shape-rendering:auto;text-rendering:geometricPrecision"
       id="g21">
      <path
         style="stroke:none"
         d="m 1.9184,-3.564 v 0.6336 q 0.2112,-0.0264 0.4488,-0.0264 0.2816,0 0.5236,0.0748 0.242,0.0748 0.418,0.2288 0.176,0.154 0.2816,0.3784 0.1056,0.2244 0.1056,0.5148 0,0.2816 -0.11,0.506 -0.11,0.2244 -0.2948,0.3784 -0.1848,0.154 -0.4312,0.2376 -0.2464,0.0836 -0.5192,0.0836 -0.6424,0 -0.9768,-0.3828 Q 1.0296,-1.32 1.012,-1.9272 H 0.264 q -0.0088,0.484 0.1364,0.8624 0.1452,0.3784 0.418,0.638 0.2728,0.2596 0.66,0.3916 0.3872,0.132 0.8624,0.132 0.44,0 0.8316,-0.1188 0.3916,-0.1188 0.682,-0.3564 0.2904,-0.2376 0.462,-0.594 0.1716,-0.3564 0.1716,-0.8228 0,-0.5632 -0.2772,-0.9768 -0.2772,-0.4136 -0.8492,-0.5368 v -0.0176 q 0.3696,-0.1672 0.616,-0.4928 0.2464,-0.3256 0.2464,-0.748 0,-0.4312 -0.1452,-0.748 Q 3.9336,-5.632 3.6784,-5.8344 3.4232,-6.0368 3.0756,-6.138 2.728,-6.2392 2.3232,-6.2392 q -0.4664,0 -0.8228,0.1496 Q 1.144,-5.94 0.9064,-5.676 0.6688,-5.412 0.5412,-5.0424 0.4136,-4.6728 0.396,-4.224 h 0.748 q 0,-0.2728 0.0704,-0.5192 0.0704,-0.2464 0.2156,-0.4312 0.1452,-0.1848 0.3696,-0.2948 0.2244,-0.11 0.5236,-0.11 0.4752,0 0.792,0.2508 0.3168,0.2508 0.3168,0.7524 0,0.2464 -0.0968,0.44 -0.0968,0.1936 -0.2596,0.3212 -0.1628,0.1276 -0.3784,0.1936 -0.2156,0.066 -0.4532,0.066 H 2.0856 q -0.044,0 -0.088,0 -0.0352,0 -0.0792,-0.0088 z"
         id="path20" />
    </g>
    <g
       transform="matrix(0.26458333,0,0,0.26458333,567.71301,635.15981)"
       style="font-style:normal;font-weight:normal;font-size:22px;font-family:mwb_cmr10;color-interpolation:linearRGB;fill:#000000;fill-opacity:1;stroke:#000000;stroke-width:1;stroke-linecap:square;stroke-linejoin:miter;stroke-miterlimit:10;stroke-dasharray:none;stroke-dashoffset:0;stroke-opacity:1;color-rendering:optimizeQuality;image-rendering:optimizeQuality;shape-rendering:auto;text-rendering:geometricPrecision"
       id="g22">
      <path
         style="stroke:none"
         d="M 1.7031,0 0.9688,-3.6562 h 0.6406 q 0.125,0.6406 0.2187,1.125 0.0938,0.4843 0.25,0.6874 0.1563,0.2032 0.5,0.2657 0.3438,0.0625 1.1407,0.0625 h 1.3437 q -0.3281,-1.25 -1.6094,-3.25 -1.2812,-2 -1.75,-2.9063 -0.4687,-0.9062 -0.4687,-2.3437 0,-1.6563 0.9844,-2.9063 1,-1.2656 2.5624,-1.9219 1.5626,-0.6718 3.1563,-0.6718 1.5937,0 3.1563,0.6718 1.5624,0.6563 2.5468,1.9219 0.9844,1.2657 0.9844,2.9063 0,1.125 -0.4062,2.1094 -0.4063,0.9843 -1.0469,1.9843 -0.625,0.9844 -1.3594,2.2031 -0.7344,1.2032 -1,2.2032 h 1.3281 q 0.7969,0 1.1563,-0.0625 0.3593,-0.0625 0.5,-0.2657 0.1562,-0.2031 0.25,-0.6874 0.0937,-0.4844 0.2031,-1.125 h 0.6406 L 14.1719,0 h -3.9063 q -0.2031,0 -0.2031,-0.2969 0,-1.1093 0.2656,-2.1875 0.2813,-1.0781 0.8125,-2.5937 0.5313,-1.5313 0.8282,-2.6875 0.3124,-1.1719 0.3124,-2.25 0,-1.3125 -0.5156,-2.4375 -0.5156,-1.1407 -1.5156,-1.8125 -0.9844,-0.6719 -2.3125,-0.6719 -2,0 -3.1719,1.4375 -1.1718,1.4219 -1.1718,3.4844 0,1.125 0.25,2.125 0.2656,1 0.8437,2.6718 0.5781,1.6563 0.8437,2.7344 0.2813,1.0782 0.2813,2.1875 Q 5.8125,0 5.5938,0 Z"
         id="path21" />
    </g>
    <g
       style="font-style:normal;font-weight:normal;font-size:12px;font-family:Dialog;color-interpolation:linearRGB;fill:#262626;fill-opacity:0.149;stroke:#262626;stroke-width:0.5;stroke-linecap:butt;stroke-linejoin:round;stroke-miterlimit:10;stroke-dasharray:none;stroke-dashoffset:0;stroke-opacity:0.149;color-rendering:optimizeQuality;image-rendering:optimizeQuality;shape-rendering:auto;text-rendering:geometricPrecision"
       id="g56"
       transform="matrix(0.26458333,0,0,0.26458333,360.80885,553.40356)">
      <line
         y2="56"
         style="fill:none"
         x1="503.69409"
         x2="503.69409"
         y1="663"
         id="line22" />
      <line
         y2="56"
         style="fill:none"
         x1="572.67139"
         x2="572.67139"
         y1="663"
         id="line23" />
      <line
         y2="56"
         style="fill:none"
         x1="641.64862"
         x2="641.64862"
         y1="663"
         id="line24" />
      <line
         y2="56"
         style="fill:none"
         x1="710.62592"
         x2="710.62592"
         y1="663"
         id="line25" />
      <line
         y2="56"
         style="fill:none"
         x1="779.60309"
         x2="779.60309"
         y1="663"
         id="line26" />
      <line
         y2="56"
         style="fill:none"
         x1="848.58038"
         x2="848.58038"
         y1="663"
         id="line27" />
      <line
         y2="56"
         style="fill:none"
         x1="917.55768"
         x2="917.55768"
         y1="663"
         id="line28" />
      <line
         y2="56"
         style="fill:none"
         x1="986.53497"
         x2="986.53497"
         y1="663"
         id="line29" />
      <line
         y2="638.22241"
         style="fill:none"
         x1="1000.15"
         x2="453.85001"
         y1="638.22241"
         id="line30" />
      <line
         y2="569.24518"
         style="fill:none"
         x1="1000.15"
         x2="453.85001"
         y1="569.24518"
         id="line31" />
      <line
         y2="500.26791"
         style="fill:none"
         x1="1000.15"
         x2="453.85001"
         y1="500.26791"
         id="line32" />
      <line
         y2="431.29059"
         style="fill:none"
         x1="1000.15"
         x2="453.85001"
         y1="431.29059"
         id="line33" />
      <line
         y2="362.31339"
         style="fill:none"
         x1="1000.15"
         x2="453.85001"
         y1="362.31339"
         id="line34" />
      <line
         y2="293.33609"
         style="fill:none"
         x1="1000.15"
         x2="453.85001"
         y1="293.33609"
         id="line35" />
      <line
         y2="224.3588"
         style="fill:none"
         x1="1000.15"
         x2="453.85001"
         y1="224.3588"
         id="line36" />
      <line
         y2="155.3815"
         style="fill:none"
         x1="1000.15"
         x2="453.85001"
         y1="155.3815"
         id="line37" />
      <line
         y2="86.404297"
         style="fill:none"
         x1="1000.15"
         x2="453.85001"
         y1="86.404297"
         id="line38" />
      <line
         x1="453.85001"
         x2="1000.15"
         y1="663"
         style="fill:none;fill-opacity:1;stroke-linecap:square;stroke-opacity:1"
         y2="663"
         id="line39" />
      <line
         x1="453.85001"
         x2="1000.15"
         y1="56"
         style="fill:none;fill-opacity:1;stroke-linecap:square;stroke-opacity:1"
         y2="56"
         id="line40" />
      <line
         x1="503.69409"
         x2="503.69409"
         y1="663"
         style="fill:none;fill-opacity:1;stroke-linecap:square;stroke-opacity:1"
         y2="656.92999"
         id="line41" />
      <line
         x1="572.67139"
         x2="572.67139"
         y1="663"
         style="fill:none;fill-opacity:1;stroke-linecap:square;stroke-opacity:1"
         y2="656.92999"
         id="line42" />
      <line
         x1="641.64862"
         x2="641.64862"
         y1="663"
         style="fill:none;fill-opacity:1;stroke-linecap:square;stroke-opacity:1"
         y2="656.92999"
         id="line43" />
      <line
         x1="710.62592"
         x2="710.62592"
         y1="663"
         style="fill:none;fill-opacity:1;stroke-linecap:square;stroke-opacity:1"
         y2="656.92999"
         id="line44" />
      <line
         x1="779.60309"
         x2="779.60309"
         y1="663"
         style="fill:none;fill-opacity:1;stroke-linecap:square;stroke-opacity:1"
         y2="656.92999"
         id="line45" />
      <line
         x1="848.58038"
         x2="848.58038"
         y1="663"
         style="fill:none;fill-opacity:1;stroke-linecap:square;stroke-opacity:1"
         y2="656.92999"
         id="line46" />
      <line
         x1="917.55768"
         x2="917.55768"
         y1="663"
         style="fill:none;fill-opacity:1;stroke-linecap:square;stroke-opacity:1"
         y2="656.92999"
         id="line47" />
      <line
         x1="986.53497"
         x2="986.53497"
         y1="663"
         style="fill:none;fill-opacity:1;stroke-linecap:square;stroke-opacity:1"
         y2="656.92999"
         id="line48" />
      <line
         x1="503.69409"
         x2="503.69409"
         y1="56"
         style="fill:none;fill-opacity:1;stroke-linecap:square;stroke-opacity:1"
         y2="62.07"
         id="line49" />
      <line
         x1="572.67139"
         x2="572.67139"
         y1="56"
         style="fill:none;fill-opacity:1;stroke-linecap:square;stroke-opacity:1"
         y2="62.07"
         id="line50" />
      <line
         x1="641.64862"
         x2="641.64862"
         y1="56"
         style="fill:none;fill-opacity:1;stroke-linecap:square;stroke-opacity:1"
         y2="62.07"
         id="line51" />
      <line
         x1="710.62592"
         x2="710.62592"
         y1="56"
         style="fill:none;fill-opacity:1;stroke-linecap:square;stroke-opacity:1"
         y2="62.07"
         id="line52" />
      <line
         x1="779.60309"
         x2="779.60309"
         y1="56"
         style="fill:none;fill-opacity:1;stroke-linecap:square;stroke-opacity:1"
         y2="62.07"
         id="line53" />
      <line
         x1="848.58038"
         x2="848.58038"
         y1="56"
         style="fill:none;fill-opacity:1;stroke-linecap:square;stroke-opacity:1"
         y2="62.07"
         id="line54" />
      <line
         x1="917.55768"
         x2="917.55768"
         y1="56"
         style="fill:none;fill-opacity:1;stroke-linecap:square;stroke-opacity:1"
         y2="62.07"
         id="line55" />
      <line
         x1="986.53497"
         x2="986.53497"
         y1="56"
         style="fill:none;fill-opacity:1;stroke-linecap:square;stroke-opacity:1"
         y2="62.07"
         id="line56" />
    </g>
    <g
       transform="matrix(0.26458333,0,0,0.26458333,494.07791,729.88064)"
       style="font-style:normal;font-weight:normal;font-size:10px;font-family:'Helvetica Neue';color-interpolation:linearRGB;fill:#262626;fill-opacity:1;stroke:#262626;stroke-width:1;stroke-linecap:square;stroke-linejoin:miter;stroke-miterlimit:10;stroke-dasharray:none;stroke-dashoffset:0;stroke-opacity:1;color-rendering:optimizeQuality;image-rendering:optimizeQuality;shape-rendering:auto;text-rendering:geometricPrecision"
       id="g57">
      <path
         style="stroke:none"
         d="m -8.5,6.82 v 0.8 h 2.89 V 6.82 Z M -1.55,10 V 2.91 H -2.2 Q -2.27,3.31 -2.46,3.57 -2.65,3.83 -2.925,3.98 -3.2,4.13 -3.54,4.185 -3.88,4.24 -4.24,4.24 V 4.92 H -2.4 V 10 Z M 1.28,8.89 V 10 H 2.39 V 8.89 Z M 7.93,3.78 V 3.03 H 4.43 L 3.77,6.71 4.5,6.75 Q 4.75,6.45 5.075,6.265 5.4,6.08 5.82,6.08 6.18,6.08 6.475,6.2 6.77,6.32 6.98,6.535 7.19,6.75 7.305,7.045 7.42,7.34 7.42,7.69 7.42,8.11 7.3,8.425 7.18,8.74 6.975,8.95 6.77,9.16 6.495,9.265 6.22,9.37 5.92,9.37 5.6,9.37 5.335,9.275 5.07,9.18 4.875,9.005 4.68,8.83 4.565,8.595 4.45,8.36 4.43,8.09 H 3.58 Q 3.59,8.57 3.77,8.95 3.95,9.33 4.26,9.585 4.57,9.84 4.975,9.975 5.38,10.11 5.84,10.11 6.46,10.11 6.925,9.915 7.39,9.72 7.7,9.39 8.01,9.06 8.165,8.635 8.32,8.21 8.32,7.76 8.32,7.15 8.14,6.695 7.96,6.24 7.65,5.935 7.34,5.63 6.92,5.48 6.5,5.33 6.03,5.33 5.67,5.33 5.305,5.455 4.94,5.58 4.71,5.84 L 4.69,5.82 5.07,3.78 Z"
         id="path56" />
    </g>
    <g
       transform="matrix(0.26458333,0,0,0.26458333,512.32816,729.88064)"
       style="font-style:normal;font-weight:normal;font-size:10px;font-family:'Helvetica Neue';color-interpolation:linearRGB;fill:#262626;fill-opacity:1;stroke:#262626;stroke-width:1;stroke-linecap:square;stroke-linejoin:miter;stroke-miterlimit:10;stroke-dasharray:none;stroke-dashoffset:0;stroke-opacity:1;color-rendering:optimizeQuality;image-rendering:optimizeQuality;shape-rendering:auto;text-rendering:geometricPrecision"
       id="g58">
      <path
         style="stroke:none"
         d="m -4.5,6.82 v 0.8 h 2.89 V 6.82 Z M 2.45,10 V 2.91 H 1.8 Q 1.73,3.31 1.54,3.57 1.35,3.83 1.075,3.98 0.8,4.13 0.46,4.185 0.12,4.24 -0.24,4.24 V 4.92 H 1.6 V 10 Z"
         id="path57" />
    </g>
    <g
       transform="matrix(0.26458333,0,0,0.26458333,530.57837,729.88064)"
       style="font-style:normal;font-weight:normal;font-size:10px;font-family:'Helvetica Neue';color-interpolation:linearRGB;fill:#262626;fill-opacity:1;stroke:#262626;stroke-width:1;stroke-linecap:square;stroke-linejoin:miter;stroke-miterlimit:10;stroke-dasharray:none;stroke-dashoffset:0;stroke-opacity:1;color-rendering:optimizeQuality;image-rendering:optimizeQuality;shape-rendering:auto;text-rendering:geometricPrecision"
       id="g59">
      <path
         style="stroke:none"
         d="m -8.5,6.82 v 0.8 h 2.89 v -0.8 z m 4.71,-0.31 q 0,-0.26 0.005,-0.575 Q -3.78,5.62 -3.735,5.305 -3.69,4.99 -3.605,4.69 -3.52,4.39 -3.355,4.165 -3.19,3.94 -2.94,3.8 q 0.25,-0.14 0.61,-0.14 0.36,0 0.61,0.14 0.25,0.14 0.415,0.365 0.165,0.225 0.25,0.525 0.085,0.3 0.13,0.615 0.045,0.315 0.05,0.63 0.005,0.315 0.005,0.575 0,0.4 -0.025,0.895 Q -0.92,7.9 -1.055,8.335 -1.19,8.77 -1.49,9.07 q -0.3,0.3 -0.84,0.3 -0.54,0 -0.84,-0.3 Q -3.47,8.77 -3.605,8.335 -3.74,7.9 -3.765,7.405 -3.79,6.91 -3.79,6.51 Z m -0.9,0.01 q 0,0.39 0.02,0.81 0.02,0.42 0.1,0.82 0.08,0.4 0.23,0.755 0.15,0.355 0.41,0.625 0.26,0.27 0.655,0.425 0.395,0.155 0.945,0.155 0.56,0 0.95,-0.155 Q -0.99,9.8 -0.73,9.53 -0.47,9.26 -0.32,8.905 -0.17,8.55 -0.09,8.15 -0.01,7.75 0.01,7.33 0.03,6.91 0.03,6.52 0.03,6.13 0.01,5.71 -0.01,5.29 -0.09,4.89 -0.17,4.49 -0.32,4.13 -0.47,3.77 -0.73,3.5 -0.99,3.23 -1.385,3.07 -1.78,2.91 -2.33,2.91 -2.88,2.91 -3.275,3.07 -3.67,3.23 -3.93,3.5 -4.19,3.77 -4.34,4.13 -4.49,4.49 -4.57,4.89 -4.65,5.29 -4.67,5.71 -4.69,6.13 -4.69,6.52 Z M 1.28,8.89 V 10 H 2.39 V 8.89 Z M 7.93,3.78 V 3.03 H 4.43 L 3.77,6.71 4.5,6.75 Q 4.75,6.45 5.075,6.265 5.4,6.08 5.82,6.08 6.18,6.08 6.475,6.2 6.77,6.32 6.98,6.535 7.19,6.75 7.305,7.045 7.42,7.34 7.42,7.69 7.42,8.11 7.3,8.425 7.18,8.74 6.975,8.95 6.77,9.16 6.495,9.265 6.22,9.37 5.92,9.37 5.6,9.37 5.335,9.275 5.07,9.18 4.875,9.005 4.68,8.83 4.565,8.595 4.45,8.36 4.43,8.09 H 3.58 Q 3.59,8.57 3.77,8.95 3.95,9.33 4.26,9.585 4.57,9.84 4.975,9.975 5.38,10.11 5.84,10.11 6.46,10.11 6.925,9.915 7.39,9.72 7.7,9.39 8.01,9.06 8.165,8.635 8.32,8.21 8.32,7.76 8.32,7.15 8.14,6.695 7.96,6.24 7.65,5.935 7.34,5.63 6.92,5.48 6.5,5.33 6.03,5.33 5.67,5.33 5.305,5.455 4.94,5.58 4.71,5.84 L 4.69,5.82 5.07,3.78 Z"
         id="path58" />
    </g>
    <g
       transform="matrix(0.26458333,0,0,0.26458333,548.82862,729.88064)"
       style="font-style:normal;font-weight:normal;font-size:10px;font-family:'Helvetica Neue';color-interpolation:linearRGB;fill:#262626;fill-opacity:1;stroke:#262626;stroke-width:1;stroke-linecap:square;stroke-linejoin:miter;stroke-miterlimit:10;stroke-dasharray:none;stroke-dashoffset:0;stroke-opacity:1;color-rendering:optimizeQuality;image-rendering:optimizeQuality;shape-rendering:auto;text-rendering:geometricPrecision"
       id="g60">
      <path
         style="stroke:none"
         d="m -1.68,6.51 q 0,-0.26 0.005,-0.575 Q -1.67,5.62 -1.625,5.305 -1.58,4.99 -1.495,4.69 -1.41,4.39 -1.245,4.165 -1.08,3.94 -0.83,3.8 -0.58,3.66 -0.22,3.66 0.14,3.66 0.39,3.8 0.64,3.94 0.805,4.165 0.97,4.39 1.055,4.69 1.14,4.99 1.185,5.305 1.23,5.62 1.235,5.935 1.24,6.25 1.24,6.51 1.24,6.91 1.215,7.405 1.19,7.9 1.055,8.335 0.92,8.77 0.62,9.07 q -0.3,0.3 -0.84,0.3 -0.54,0 -0.84,-0.3 Q -1.36,8.77 -1.495,8.335 -1.63,7.9 -1.655,7.405 -1.68,6.91 -1.68,6.51 Z m -0.9,0.01 q 0,0.39 0.02,0.81 0.02,0.42 0.1,0.82 0.08,0.4 0.23,0.755 0.15,0.355 0.41,0.625 0.26,0.27 0.655,0.425 0.395,0.155 0.945,0.155 0.56,0 0.95,-0.155 Q 1.12,9.8 1.38,9.53 1.64,9.26 1.79,8.905 1.94,8.55 2.02,8.15 2.1,7.75 2.12,7.33 2.14,6.91 2.14,6.52 2.14,6.13 2.12,5.71 2.1,5.29 2.02,4.89 1.94,4.49 1.79,4.13 1.64,3.77 1.38,3.5 1.12,3.23 0.725,3.07 0.33,2.91 -0.22,2.91 q -0.55,0 -0.945,0.16 -0.395,0.16 -0.655,0.43 -0.26,0.27 -0.41,0.63 -0.15,0.36 -0.23,0.76 -0.08,0.4 -0.1,0.82 -0.02,0.42 -0.02,0.81 z"
         id="path59" />
    </g>
    <g
       transform="matrix(0.26458333,0,0,0.26458333,567.07883,729.88064)"
       style="font-style:normal;font-weight:normal;font-size:10px;font-family:'Helvetica Neue';color-interpolation:linearRGB;fill:#262626;fill-opacity:1;stroke:#262626;stroke-width:1;stroke-linecap:square;stroke-linejoin:miter;stroke-miterlimit:10;stroke-dasharray:none;stroke-dashoffset:0;stroke-opacity:1;color-rendering:optimizeQuality;image-rendering:optimizeQuality;shape-rendering:auto;text-rendering:geometricPrecision"
       id="g61">
      <path
         style="stroke:none"
         d="m -5.68,6.51 q 0,-0.26 0.005,-0.575 Q -5.67,5.62 -5.625,5.305 -5.58,4.99 -5.495,4.69 -5.41,4.39 -5.245,4.165 -5.08,3.94 -4.83,3.8 q 0.25,-0.14 0.61,-0.14 0.36,0 0.61,0.14 0.25,0.14 0.415,0.365 0.165,0.225 0.25,0.525 0.085,0.3 0.13,0.615 0.045,0.315 0.05,0.63 0.005,0.315 0.005,0.575 0,0.4 -0.025,0.895 Q -2.81,7.9 -2.945,8.335 -3.08,8.77 -3.38,9.07 q -0.3,0.3 -0.84,0.3 -0.54,0 -0.84,-0.3 Q -5.36,8.77 -5.495,8.335 -5.63,7.9 -5.655,7.405 -5.68,6.91 -5.68,6.51 Z m -0.9,0.01 q 0,0.39 0.02,0.81 0.02,0.42 0.1,0.82 0.08,0.4 0.23,0.755 0.15,0.355 0.41,0.625 0.26,0.27 0.655,0.425 0.395,0.155 0.945,0.155 0.56,0 0.95,-0.155 Q -2.88,9.8 -2.62,9.53 -2.36,9.26 -2.21,8.905 -2.06,8.55 -1.98,8.15 -1.9,7.75 -1.88,7.33 -1.86,6.91 -1.86,6.52 -1.86,6.13 -1.88,5.71 -1.9,5.29 -1.98,4.89 -2.06,4.49 -2.21,4.13 -2.36,3.77 -2.62,3.5 -2.88,3.23 -3.275,3.07 -3.67,2.91 -4.22,2.91 q -0.55,0 -0.945,0.16 -0.395,0.16 -0.655,0.43 -0.26,0.27 -0.41,0.63 -0.15,0.36 -0.23,0.76 -0.08,0.4 -0.1,0.82 -0.02,0.42 -0.02,0.81 z m 5.97,2.37 V 10 H 0.5 V 8.89 Z M 6.04,3.78 V 3.03 H 2.54 L 1.88,6.71 2.61,6.75 Q 2.86,6.45 3.185,6.265 3.51,6.08 3.93,6.08 4.29,6.08 4.585,6.2 4.88,6.32 5.09,6.535 5.3,6.75 5.415,7.045 5.53,7.34 5.53,7.69 5.53,8.11 5.41,8.425 5.29,8.74 5.085,8.95 4.88,9.16 4.605,9.265 4.33,9.37 4.03,9.37 3.71,9.37 3.445,9.275 3.18,9.18 2.985,9.005 2.79,8.83 2.675,8.595 2.56,8.36 2.54,8.09 H 1.69 Q 1.7,8.57 1.88,8.95 2.06,9.33 2.37,9.585 2.68,9.84 3.085,9.975 3.49,10.11 3.95,10.11 4.57,10.11 5.035,9.915 5.5,9.72 5.81,9.39 6.12,9.06 6.275,8.635 6.43,8.21 6.43,7.76 6.43,7.15 6.25,6.695 6.07,6.24 5.76,5.935 5.45,5.63 5.03,5.48 4.61,5.33 4.14,5.33 3.78,5.33 3.415,5.455 3.05,5.58 2.82,5.84 L 2.8,5.82 3.18,3.78 Z"
         id="path60" />
    </g>
    <g
       transform="matrix(0.26458333,0,0,0.26458333,585.32908,729.88064)"
       style="font-style:normal;font-weight:normal;font-size:10px;font-family:'Helvetica Neue';color-interpolation:linearRGB;fill:#262626;fill-opacity:1;stroke:#262626;stroke-width:1;stroke-linecap:square;stroke-linejoin:miter;stroke-miterlimit:10;stroke-dasharray:none;stroke-dashoffset:0;stroke-opacity:1;color-rendering:optimizeQuality;image-rendering:optimizeQuality;shape-rendering:auto;text-rendering:geometricPrecision"
       id="g62">
      <path
         style="stroke:none"
         d="M 0.56,10 V 2.91 H -0.09 Q -0.16,3.31 -0.35,3.57 -0.54,3.83 -0.815,3.98 -1.09,4.13 -1.43,4.185 -1.77,4.24 -2.13,4.24 v 0.68 h 1.84 V 10 Z"
         id="path61" />
    </g>
    <g
       transform="matrix(0.26458333,0,0,0.26458333,603.57932,729.88064)"
       style="font-style:normal;font-weight:normal;font-size:10px;font-family:'Helvetica Neue';color-interpolation:linearRGB;fill:#262626;fill-opacity:1;stroke:#262626;stroke-width:1;stroke-linecap:square;stroke-linejoin:miter;stroke-miterlimit:10;stroke-dasharray:none;stroke-dashoffset:0;stroke-opacity:1;color-rendering:optimizeQuality;image-rendering:optimizeQuality;shape-rendering:auto;text-rendering:geometricPrecision"
       id="g63">
      <path
         style="stroke:none"
         d="M -3.44,10 V 2.91 H -4.09 Q -4.16,3.31 -4.35,3.57 -4.54,3.83 -4.815,3.98 -5.09,4.13 -5.43,4.185 -5.77,4.24 -6.13,4.24 v 0.68 h 1.84 V 10 Z M -0.61,8.89 V 10 H 0.5 V 8.89 Z M 6.04,3.78 V 3.03 H 2.54 L 1.88,6.71 2.61,6.75 Q 2.86,6.45 3.185,6.265 3.51,6.08 3.93,6.08 4.29,6.08 4.585,6.2 4.88,6.32 5.09,6.535 5.3,6.75 5.415,7.045 5.53,7.34 5.53,7.69 5.53,8.11 5.41,8.425 5.29,8.74 5.085,8.95 4.88,9.16 4.605,9.265 4.33,9.37 4.03,9.37 3.71,9.37 3.445,9.275 3.18,9.18 2.985,9.005 2.79,8.83 2.675,8.595 2.56,8.36 2.54,8.09 H 1.69 Q 1.7,8.57 1.88,8.95 2.06,9.33 2.37,9.585 2.68,9.84 3.085,9.975 3.49,10.11 3.95,10.11 4.57,10.11 5.035,9.915 5.5,9.72 5.81,9.39 6.12,9.06 6.275,8.635 6.43,8.21 6.43,7.76 6.43,7.15 6.25,6.695 6.07,6.24 5.76,5.935 5.45,5.63 5.03,5.48 4.61,5.33 4.14,5.33 3.78,5.33 3.415,5.455 3.05,5.58 2.82,5.84 L 2.8,5.82 3.18,3.78 Z"
         id="path62" />
    </g>
    <g
       transform="matrix(0.26458333,0,0,0.26458333,621.82957,729.88064)"
       style="font-style:normal;font-weight:normal;font-size:10px;font-family:'Helvetica Neue';color-interpolation:linearRGB;fill:#262626;fill-opacity:1;stroke:#262626;stroke-width:1;stroke-linecap:square;stroke-linejoin:miter;stroke-miterlimit:10;stroke-dasharray:none;stroke-dashoffset:0;stroke-opacity:1;color-rendering:optimizeQuality;image-rendering:optimizeQuality;shape-rendering:auto;text-rendering:geometricPrecision"
       id="g64">
      <path
         style="stroke:none"
         d="m -2.56,5.42 h 0.85 Q -1.72,5.1 -1.645,4.785 -1.57,4.47 -1.4,4.22 -1.23,3.97 -0.965,3.815 -0.7,3.66 -0.33,3.66 -0.05,3.66 0.2,3.75 0.45,3.84 0.635,4.01 0.82,4.18 0.93,4.415 1.04,4.65 1.04,4.94 1.04,5.31 0.925,5.59 0.81,5.87 0.585,6.11 0.36,6.35 0.02,6.585 -0.32,6.82 -0.77,7.1 -1.14,7.32 -1.48,7.57 -1.82,7.82 -2.09,8.15 -2.36,8.48 -2.535,8.925 -2.71,9.37 -2.76,10 H 1.87 V 9.25 H -1.77 Q -1.71,8.92 -1.515,8.665 -1.32,8.41 -1.045,8.19 -0.77,7.97 -0.44,7.775 -0.11,7.58 0.22,7.38 0.55,7.17 0.86,6.94 1.17,6.71 1.41,6.425 1.65,6.14 1.795,5.78 1.94,5.42 1.94,4.95 1.94,4.45 1.765,4.07 1.59,3.69 1.29,3.435 0.99,3.18 0.585,3.045 0.18,2.91 -0.28,2.91 q -0.56,0 -1,0.19 -0.44,0.19 -0.735,0.525 -0.295,0.335 -0.435,0.795 -0.14,0.46 -0.11,1 z"
         id="path63" />
    </g>
    <g
       transform="matrix(0.26458333,0,0,0.26458333,551.57343,736.49522)"
       style="font-style:normal;font-weight:normal;font-size:11px;font-family:'Helvetica Neue';color-interpolation:linearRGB;fill:#262626;fill-opacity:1;stroke:#262626;stroke-width:1;stroke-linecap:square;stroke-linejoin:miter;stroke-miterlimit:10;stroke-dasharray:none;stroke-dashoffset:0;stroke-opacity:1;color-rendering:optimizeQuality;image-rendering:optimizeQuality;shape-rendering:auto;text-rendering:geometricPrecision"
       id="g65">
      <path
         style="stroke:none"
         d="M 2.233,-2.992 0.099,0 H 1.232 L 2.816,-2.354 4.4,0 h 1.199 l -2.2,-3.069 1.958,-2.618 H 4.235 L 2.816,-3.696 1.452,-5.687 H 0.253 Z"
         id="path64" />
    </g>
    <g
       transform="matrix(0.26458333,0,0,0.26458333,553.16093,737.81814)"
       style="font-style:normal;font-weight:normal;font-size:8.8px;font-family:'Helvetica Neue';color-interpolation:linearRGB;fill:#262626;fill-opacity:1;stroke:#262626;stroke-width:1;stroke-linecap:square;stroke-linejoin:miter;stroke-miterlimit:10;stroke-dasharray:none;stroke-dashoffset:0;stroke-opacity:1;color-rendering:optimizeQuality;image-rendering:optimizeQuality;shape-rendering:auto;text-rendering:geometricPrecision"
       id="g66">
      <path
         style="stroke:none"
         d="m 3.1328,0 v -6.2392 h -0.572 q -0.0616,0.352 -0.2288,0.5808 -0.1672,0.2288 -0.4092,0.3608 -0.242,0.132 -0.5412,0.1804 -0.2992,0.0484 -0.616,0.0484 v 0.5984 H 2.3848 V 0 Z"
         id="path65" />
    </g>
    <g
       style="font-style:normal;font-weight:normal;font-size:12px;font-family:Dialog;color-interpolation:linearRGB;fill:#262626;fill-opacity:1;stroke:#262626;stroke-width:0.5;stroke-linecap:square;stroke-linejoin:round;stroke-miterlimit:10;stroke-dasharray:none;stroke-dashoffset:0;stroke-opacity:1;color-rendering:optimizeQuality;image-rendering:optimizeQuality;shape-rendering:auto;text-rendering:geometricPrecision"
       id="g85"
       transform="matrix(0.26458333,0,0,0.26458333,360.80885,553.40356)">
      <line
         y2="56"
         style="fill:none"
         x1="453.85001"
         x2="453.85001"
         y1="663"
         id="line66" />
      <line
         y2="56"
         style="fill:none"
         x1="1000.15"
         x2="1000.15"
         y1="663"
         id="line67" />
      <line
         y2="638.22241"
         style="fill:none"
         x1="453.85001"
         x2="459.92001"
         y1="638.22241"
         id="line68" />
      <line
         y2="569.24518"
         style="fill:none"
         x1="453.85001"
         x2="459.92001"
         y1="569.24518"
         id="line69" />
      <line
         y2="500.26791"
         style="fill:none"
         x1="453.85001"
         x2="459.92001"
         y1="500.26791"
         id="line70" />
      <line
         y2="431.29059"
         style="fill:none"
         x1="453.85001"
         x2="459.92001"
         y1="431.29059"
         id="line71" />
      <line
         y2="362.31339"
         style="fill:none"
         x1="453.85001"
         x2="459.92001"
         y1="362.31339"
         id="line72" />
      <line
         y2="293.33609"
         style="fill:none"
         x1="453.85001"
         x2="459.92001"
         y1="293.33609"
         id="line73" />
      <line
         y2="224.3588"
         style="fill:none"
         x1="453.85001"
         x2="459.92001"
         y1="224.3588"
         id="line74" />
      <line
         y2="155.3815"
         style="fill:none"
         x1="453.85001"
         x2="459.92001"
         y1="155.3815"
         id="line75" />
      <line
         y2="86.404297"
         style="fill:none"
         x1="453.85001"
         x2="459.92001"
         y1="86.404297"
         id="line76" />
      <line
         y2="638.22241"
         style="fill:none"
         x1="1000.15"
         x2="994.08002"
         y1="638.22241"
         id="line77" />
      <line
         y2="569.24518"
         style="fill:none"
         x1="1000.15"
         x2="994.08002"
         y1="569.24518"
         id="line78" />
      <line
         y2="500.26791"
         style="fill:none"
         x1="1000.15"
         x2="994.08002"
         y1="500.26791"
         id="line79" />
      <line
         y2="431.29059"
         style="fill:none"
         x1="1000.15"
         x2="994.08002"
         y1="431.29059"
         id="line80" />
      <line
         y2="362.31339"
         style="fill:none"
         x1="1000.15"
         x2="994.08002"
         y1="362.31339"
         id="line81" />
      <line
         y2="293.33609"
         style="fill:none"
         x1="1000.15"
         x2="994.08002"
         y1="293.33609"
         id="line82" />
      <line
         y2="224.3588"
         style="fill:none"
         x1="1000.15"
         x2="994.08002"
         y1="224.3588"
         id="line83" />
      <line
         y2="155.3815"
         style="fill:none"
         x1="1000.15"
         x2="994.08002"
         y1="155.3815"
         id="line84" />
      <line
         y2="86.404297"
         style="fill:none"
         x1="1000.15"
         x2="994.08002"
         y1="86.404297"
         id="line85" />
    </g>
    <g
       transform="matrix(0.26458333,0,0,0.26458333,479.83166,722.26657)"
       style="font-style:normal;font-weight:normal;font-size:10px;font-family:'Helvetica Neue';color-interpolation:linearRGB;fill:#262626;fill-opacity:1;stroke:#262626;stroke-width:1;stroke-linecap:square;stroke-linejoin:miter;stroke-miterlimit:10;stroke-dasharray:none;stroke-dashoffset:0;stroke-opacity:1;color-rendering:optimizeQuality;image-rendering:optimizeQuality;shape-rendering:auto;text-rendering:geometricPrecision"
       id="g86">
      <path
         style="stroke:none"
         d="m -17.5,0.32 v 0.8 h 2.89 v -0.8 z m 4.71,-0.31 q 0,-0.26 0.005,-0.575 0.005,-0.315 0.05,-0.63 0.045,-0.315 0.13,-0.615 0.085,-0.3 0.25,-0.525 0.165,-0.225 0.415,-0.365 0.25,-0.14 0.61,-0.14 0.36,0 0.61,0.14 0.25,0.14 0.415,0.365 0.165,0.225 0.25,0.525 0.085,0.3 0.13,0.615 0.045,0.315 0.05,0.63 0.005,0.315 0.005,0.575 0,0.4 -0.025,0.895 -0.025,0.495 -0.16,0.93 -0.135,0.435 -0.435,0.735 -0.3,0.3 -0.84,0.3 -0.54,0 -0.84,-0.3 -0.3,-0.3 -0.435,-0.735 Q -12.74,1.4 -12.765,0.905 -12.79,0.41 -12.79,0.01 Z m -0.9,0.01 q 0,0.39 0.02,0.81 0.02,0.42 0.1,0.82 0.08,0.4 0.23,0.755 0.15,0.355 0.41,0.625 0.26,0.27 0.655,0.425 0.395,0.155 0.945,0.155 0.56,0 0.95,-0.155 Q -9.99,3.3 -9.73,3.03 -9.47,2.76 -9.32,2.405 -9.17,2.05 -9.09,1.65 q 0.08,-0.4 0.1,-0.82 0.02,-0.42 0.02,-0.81 0,-0.39 -0.02,-0.81 -0.02,-0.42 -0.1,-0.82 -0.08,-0.4 -0.23,-0.76 -0.15,-0.36 -0.41,-0.63 -0.26,-0.27 -0.655,-0.43 -0.395,-0.16 -0.945,-0.16 -0.55,0 -0.945,0.16 -0.395,0.16 -0.655,0.43 -0.26,0.27 -0.41,0.63 -0.15,0.36 -0.23,0.76 -0.08,0.4 -0.1,0.82 -0.02,0.42 -0.02,0.81 z m 5.97,2.37 V 3.5 h 1.11 V 2.39 Z m 6.65,-5.11 v -0.75 h -3.5 l -0.66,3.68 0.73,0.04 q 0.25,-0.3 0.575,-0.485 0.325,-0.185 0.745,-0.185 0.36,0 0.655,0.12 0.295,0.12 0.505,0.335 0.21,0.215 0.325,0.51 0.115,0.295 0.115,0.645 0,0.42 -0.12,0.735 Q -1.82,2.24 -2.025,2.45 -2.23,2.66 -2.505,2.765 -2.78,2.87 -3.08,2.87 -3.4,2.87 -3.665,2.775 -3.93,2.68 -4.125,2.505 -4.32,2.33 -4.435,2.095 -4.55,1.86 -4.57,1.59 h -0.85 q 0.01,0.48 0.19,0.86 0.18,0.38 0.49,0.635 0.31,0.255 0.715,0.39 0.405,0.135 0.865,0.135 0.62,0 1.085,-0.195 Q -1.61,3.22 -1.3,2.89 -0.99,2.56 -0.835,2.135 -0.68,1.71 -0.68,1.26 -0.68,0.65 -0.86,0.195 -1.04,-0.26 -1.35,-0.565 -1.66,-0.87 -2.08,-1.02 -2.5,-1.17 -2.97,-1.17 q -0.36,0 -0.725,0.125 -0.365,0.125 -0.595,0.385 l -0.02,-0.02 0.38,-2.04 z"
         id="path85" />
    </g>
    <g
       transform="matrix(0.26458333,0,0,0.26458333,479.83166,704.01635)"
       style="font-style:normal;font-weight:normal;font-size:10px;font-family:'Helvetica Neue';color-interpolation:linearRGB;fill:#262626;fill-opacity:1;stroke:#262626;stroke-width:1;stroke-linecap:square;stroke-linejoin:miter;stroke-miterlimit:10;stroke-dasharray:none;stroke-dashoffset:0;stroke-opacity:1;color-rendering:optimizeQuality;image-rendering:optimizeQuality;shape-rendering:auto;text-rendering:geometricPrecision"
       id="g87">
      <path
         style="stroke:none"
         d="m -4.68,0.01 q 0,-0.26 0.005,-0.575 0.005,-0.315 0.05,-0.63 0.045,-0.315 0.13,-0.615 0.085,-0.3 0.25,-0.525 0.165,-0.225 0.415,-0.365 0.25,-0.14 0.61,-0.14 0.36,0 0.61,0.14 0.25,0.14 0.415,0.365 0.165,0.225 0.25,0.525 0.085,0.3 0.13,0.615 0.045,0.315 0.05,0.63 0.005,0.315 0.005,0.575 0,0.4 -0.025,0.895 Q -1.81,1.4 -1.945,1.835 -2.08,2.27 -2.38,2.57 q -0.3,0.3 -0.84,0.3 -0.54,0 -0.84,-0.3 Q -4.36,2.27 -4.495,1.835 -4.63,1.4 -4.655,0.905 -4.68,0.41 -4.68,0.01 Z m -0.9,0.01 q 0,0.39 0.02,0.81 0.02,0.42 0.1,0.82 0.08,0.4 0.23,0.755 0.15,0.355 0.41,0.625 0.26,0.27 0.655,0.425 0.395,0.155 0.945,0.155 0.56,0 0.95,-0.155 Q -1.88,3.3 -1.62,3.03 -1.36,2.76 -1.21,2.405 -1.06,2.05 -0.98,1.65 q 0.08,-0.4 0.1,-0.82 0.02,-0.42 0.02,-0.81 0,-0.39 -0.02,-0.81 -0.02,-0.42 -0.1,-0.82 -0.08,-0.4 -0.23,-0.76 Q -1.36,-2.73 -1.62,-3 -1.88,-3.27 -2.275,-3.43 -2.67,-3.59 -3.22,-3.59 q -0.55,0 -0.945,0.16 -0.395,0.16 -0.655,0.43 -0.26,0.27 -0.41,0.63 -0.15,0.36 -0.23,0.76 -0.08,0.4 -0.1,0.82 -0.02,0.42 -0.02,0.81 z"
         id="path86" />
    </g>
    <g
       transform="matrix(0.26458333,0,0,0.26458333,479.83166,685.76611)"
       style="font-style:normal;font-weight:normal;font-size:10px;font-family:'Helvetica Neue';color-interpolation:linearRGB;fill:#262626;fill-opacity:1;stroke:#262626;stroke-width:1;stroke-linecap:square;stroke-linejoin:miter;stroke-miterlimit:10;stroke-dasharray:none;stroke-dashoffset:0;stroke-opacity:1;color-rendering:optimizeQuality;image-rendering:optimizeQuality;shape-rendering:auto;text-rendering:geometricPrecision"
       id="g88">
      <path
         style="stroke:none"
         d="m -12.68,0.01 q 0,-0.26 0.005,-0.575 0.005,-0.315 0.05,-0.63 0.045,-0.315 0.13,-0.615 0.085,-0.3 0.25,-0.525 0.165,-0.225 0.415,-0.365 0.25,-0.14 0.61,-0.14 0.36,0 0.61,0.14 0.25,0.14 0.415,0.365 0.165,0.225 0.25,0.525 0.085,0.3 0.13,0.615 0.045,0.315 0.05,0.63 0.005,0.315 0.005,0.575 0,0.4 -0.025,0.895 -0.025,0.495 -0.16,0.93 -0.135,0.435 -0.435,0.735 -0.3,0.3 -0.84,0.3 -0.54,0 -0.84,-0.3 -0.3,-0.3 -0.435,-0.735 Q -12.63,1.4 -12.655,0.905 -12.68,0.41 -12.68,0.01 Z m -0.9,0.01 q 0,0.39 0.02,0.81 0.02,0.42 0.1,0.82 0.08,0.4 0.23,0.755 0.15,0.355 0.41,0.625 0.26,0.27 0.655,0.425 0.395,0.155 0.945,0.155 0.56,0 0.95,-0.155 Q -9.88,3.3 -9.62,3.03 -9.36,2.76 -9.21,2.405 -9.06,2.05 -8.98,1.65 q 0.08,-0.4 0.1,-0.82 0.02,-0.42 0.02,-0.81 0,-0.39 -0.02,-0.81 -0.02,-0.42 -0.1,-0.82 -0.08,-0.4 -0.23,-0.76 -0.15,-0.36 -0.41,-0.63 -0.26,-0.27 -0.655,-0.43 -0.395,-0.16 -0.945,-0.16 -0.55,0 -0.945,0.16 -0.395,0.16 -0.655,0.43 -0.26,0.27 -0.41,0.63 -0.15,0.36 -0.23,0.76 -0.08,0.4 -0.1,0.82 -0.02,0.42 -0.02,0.81 z m 5.97,2.37 V 3.5 H -6.5 V 2.39 Z m 6.65,-5.11 v -0.75 h -3.5 l -0.66,3.68 0.73,0.04 q 0.25,-0.3 0.575,-0.485 0.325,-0.185 0.745,-0.185 0.36,0 0.655,0.12 0.295,0.12 0.505,0.335 0.21,0.215 0.325,0.51 0.115,0.295 0.115,0.645 0,0.42 -0.12,0.735 Q -1.71,2.24 -1.915,2.45 -2.12,2.66 -2.395,2.765 -2.67,2.87 -2.97,2.87 -3.29,2.87 -3.555,2.775 -3.82,2.68 -4.015,2.505 -4.21,2.33 -4.325,2.095 -4.44,1.86 -4.46,1.59 h -0.85 q 0.01,0.48 0.19,0.86 0.18,0.38 0.49,0.635 0.31,0.255 0.715,0.39 0.405,0.135 0.865,0.135 0.62,0 1.085,-0.195 Q -1.5,3.22 -1.19,2.89 -0.88,2.56 -0.725,2.135 -0.57,1.71 -0.57,1.26 q 0,-0.61 -0.18,-1.065 -0.18,-0.455 -0.49,-0.76 -0.31,-0.305 -0.73,-0.455 -0.42,-0.15 -0.89,-0.15 -0.36,0 -0.725,0.125 -0.365,0.125 -0.595,0.385 l -0.02,-0.02 0.38,-2.04 z"
         id="path87" />
    </g>
    <g
       transform="matrix(0.26458333,0,0,0.26458333,479.83166,667.51586)"
       style="font-style:normal;font-weight:normal;font-size:10px;font-family:'Helvetica Neue';color-interpolation:linearRGB;fill:#262626;fill-opacity:1;stroke:#262626;stroke-width:1;stroke-linecap:square;stroke-linejoin:miter;stroke-miterlimit:10;stroke-dasharray:none;stroke-dashoffset:0;stroke-opacity:1;color-rendering:optimizeQuality;image-rendering:optimizeQuality;shape-rendering:auto;text-rendering:geometricPrecision"
       id="g89">
      <path
         style="stroke:none"
         d="m -2.44,3.5 v -7.09 h -0.65 q -0.07,0.4 -0.26,0.66 -0.19,0.26 -0.465,0.41 -0.275,0.15 -0.615,0.205 -0.34,0.055 -0.7,0.055 v 0.68 h 1.84 V 3.5 Z"
         id="path88" />
    </g>
    <g
       transform="matrix(0.26458333,0,0,0.26458333,479.83166,649.26565)"
       style="font-style:normal;font-weight:normal;font-size:10px;font-family:'Helvetica Neue';color-interpolation:linearRGB;fill:#262626;fill-opacity:1;stroke:#262626;stroke-width:1;stroke-linecap:square;stroke-linejoin:miter;stroke-miterlimit:10;stroke-dasharray:none;stroke-dashoffset:0;stroke-opacity:1;color-rendering:optimizeQuality;image-rendering:optimizeQuality;shape-rendering:auto;text-rendering:geometricPrecision"
       id="g90">
      <path
         style="stroke:none"
         d="m -10.44,3.5 v -7.09 h -0.65 q -0.07,0.4 -0.26,0.66 -0.19,0.26 -0.465,0.41 -0.275,0.15 -0.615,0.205 -0.34,0.055 -0.7,0.055 v 0.68 h 1.84 V 3.5 Z M -7.61,2.39 V 3.5 H -6.5 V 2.39 Z m 6.65,-5.11 v -0.75 h -3.5 l -0.66,3.68 0.73,0.04 q 0.25,-0.3 0.575,-0.485 0.325,-0.185 0.745,-0.185 0.36,0 0.655,0.12 0.295,0.12 0.505,0.335 0.21,0.215 0.325,0.51 0.115,0.295 0.115,0.645 0,0.42 -0.12,0.735 Q -1.71,2.24 -1.915,2.45 -2.12,2.66 -2.395,2.765 -2.67,2.87 -2.97,2.87 -3.29,2.87 -3.555,2.775 -3.82,2.68 -4.015,2.505 -4.21,2.33 -4.325,2.095 -4.44,1.86 -4.46,1.59 h -0.85 q 0.01,0.48 0.19,0.86 0.18,0.38 0.49,0.635 0.31,0.255 0.715,0.39 0.405,0.135 0.865,0.135 0.62,0 1.085,-0.195 Q -1.5,3.22 -1.19,2.89 -0.88,2.56 -0.725,2.135 -0.57,1.71 -0.57,1.26 q 0,-0.61 -0.18,-1.065 -0.18,-0.455 -0.49,-0.76 -0.31,-0.305 -0.73,-0.455 -0.42,-0.15 -0.89,-0.15 -0.36,0 -0.725,0.125 -0.365,0.125 -0.595,0.385 l -0.02,-0.02 0.38,-2.04 z"
         id="path89" />
    </g>
    <g
       transform="matrix(0.26458333,0,0,0.26458333,479.83166,631.0154)"
       style="font-style:normal;font-weight:normal;font-size:10px;font-family:'Helvetica Neue';color-interpolation:linearRGB;fill:#262626;fill-opacity:1;stroke:#262626;stroke-width:1;stroke-linecap:square;stroke-linejoin:miter;stroke-miterlimit:10;stroke-dasharray:none;stroke-dashoffset:0;stroke-opacity:1;color-rendering:optimizeQuality;image-rendering:optimizeQuality;shape-rendering:auto;text-rendering:geometricPrecision"
       id="g91">
      <path
         style="stroke:none"
         d="m -5.56,-1.08 h 0.85 Q -4.72,-1.4 -4.645,-1.715 -4.57,-2.03 -4.4,-2.28 -4.23,-2.53 -3.965,-2.685 -3.7,-2.84 -3.33,-2.84 q 0.28,0 0.53,0.09 0.25,0.09 0.435,0.26 0.185,0.17 0.295,0.405 0.11,0.235 0.11,0.525 0,0.37 -0.115,0.65 -0.115,0.28 -0.34,0.52 Q -2.64,-0.15 -2.98,0.085 -3.32,0.32 -3.77,0.6 -4.14,0.82 -4.48,1.07 -4.82,1.32 -5.09,1.65 -5.36,1.98 -5.535,2.425 -5.71,2.87 -5.76,3.5 h 4.63 V 2.75 H -4.77 Q -4.71,2.42 -4.515,2.165 -4.32,1.91 -4.045,1.69 -3.77,1.47 -3.44,1.275 -3.11,1.08 -2.78,0.88 q 0.33,-0.21 0.64,-0.44 0.31,-0.23 0.55,-0.515 0.24,-0.285 0.385,-0.645 0.145,-0.36 0.145,-0.83 0,-0.5 -0.175,-0.88 Q -1.41,-2.81 -1.71,-3.065 -2.01,-3.32 -2.415,-3.455 -2.82,-3.59 -3.28,-3.59 q -0.56,0 -1,0.19 -0.44,0.19 -0.735,0.525 -0.295,0.335 -0.435,0.795 -0.14,0.46 -0.11,1 z"
         id="path90" />
    </g>
    <g
       transform="matrix(0.26458333,0,0,0.26458333,479.83166,612.76516)"
       style="font-style:normal;font-weight:normal;font-size:10px;font-family:'Helvetica Neue';color-interpolation:linearRGB;fill:#262626;fill-opacity:1;stroke:#262626;stroke-width:1;stroke-linecap:square;stroke-linejoin:miter;stroke-miterlimit:10;stroke-dasharray:none;stroke-dashoffset:0;stroke-opacity:1;color-rendering:optimizeQuality;image-rendering:optimizeQuality;shape-rendering:auto;text-rendering:geometricPrecision"
       id="g92">
      <path
         style="stroke:none"
         d="m -13.56,-1.08 h 0.85 q -0.01,-0.32 0.065,-0.635 0.075,-0.315 0.245,-0.565 0.17,-0.25 0.435,-0.405 0.265,-0.155 0.635,-0.155 0.28,0 0.53,0.09 0.25,0.09 0.435,0.26 0.185,0.17 0.295,0.405 0.11,0.235 0.11,0.525 0,0.37 -0.115,0.65 -0.115,0.28 -0.34,0.52 -0.225,0.24 -0.565,0.475 -0.34,0.235 -0.79,0.515 -0.37,0.22 -0.71,0.47 -0.34,0.25 -0.61,0.58 -0.27,0.33 -0.445,0.775 Q -13.71,2.87 -13.76,3.5 h 4.63 V 2.75 h -3.64 q 0.06,-0.33 0.255,-0.585 0.195,-0.255 0.47,-0.475 0.275,-0.22 0.605,-0.415 0.33,-0.195 0.66,-0.395 0.33,-0.21 0.64,-0.44 0.31,-0.23 0.55,-0.515 0.24,-0.285 0.385,-0.645 0.145,-0.36 0.145,-0.83 0,-0.5 -0.175,-0.88 -0.175,-0.38 -0.475,-0.635 -0.3,-0.255 -0.705,-0.39 -0.405,-0.135 -0.865,-0.135 -0.56,0 -1,0.19 -0.44,0.19 -0.735,0.525 -0.295,0.335 -0.435,0.795 -0.14,0.46 -0.11,1 z m 5.95,3.47 V 3.5 H -6.5 V 2.39 Z m 6.65,-5.11 v -0.75 h -3.5 l -0.66,3.68 0.73,0.04 q 0.25,-0.3 0.575,-0.485 0.325,-0.185 0.745,-0.185 0.36,0 0.655,0.12 0.295,0.12 0.505,0.335 0.21,0.215 0.325,0.51 0.115,0.295 0.115,0.645 0,0.42 -0.12,0.735 Q -1.71,2.24 -1.915,2.45 -2.12,2.66 -2.395,2.765 -2.67,2.87 -2.97,2.87 -3.29,2.87 -3.555,2.775 -3.82,2.68 -4.015,2.505 -4.21,2.33 -4.325,2.095 -4.44,1.86 -4.46,1.59 h -0.85 q 0.01,0.48 0.19,0.86 0.18,0.38 0.49,0.635 0.31,0.255 0.715,0.39 0.405,0.135 0.865,0.135 0.62,0 1.085,-0.195 Q -1.5,3.22 -1.19,2.89 -0.88,2.56 -0.725,2.135 -0.57,1.71 -0.57,1.26 q 0,-0.61 -0.18,-1.065 -0.18,-0.455 -0.49,-0.76 -0.31,-0.305 -0.73,-0.455 -0.42,-0.15 -0.89,-0.15 -0.36,0 -0.725,0.125 -0.365,0.125 -0.595,0.385 l -0.02,-0.02 0.38,-2.04 z"
         id="path91" />
    </g>
    <g
       transform="matrix(0.26458333,0,0,0.26458333,479.83166,594.51491)"
       style="font-style:normal;font-weight:normal;font-size:10px;font-family:'Helvetica Neue';color-interpolation:linearRGB;fill:#262626;fill-opacity:1;stroke:#262626;stroke-width:1;stroke-linecap:square;stroke-linejoin:miter;stroke-miterlimit:10;stroke-dasharray:none;stroke-dashoffset:0;stroke-opacity:1;color-rendering:optimizeQuality;image-rendering:optimizeQuality;shape-rendering:auto;text-rendering:geometricPrecision"
       id="g93">
      <path
         style="stroke:none"
         d="m -3.82,-0.55 v 0.72 q 0.24,-0.03 0.51,-0.03 0.32,0 0.595,0.085 0.275,0.085 0.475,0.26 0.2,0.175 0.32,0.43 Q -1.8,1.17 -1.8,1.5 -1.8,1.82 -1.925,2.075 -2.05,2.33 -2.26,2.505 -2.47,2.68 -2.75,2.775 -3.03,2.87 -3.34,2.87 -4.07,2.87 -4.45,2.435 -4.83,2 -4.85,1.31 H -5.7 q -0.01,0.55 0.155,0.98 0.165,0.43 0.475,0.725 0.31,0.295 0.75,0.445 0.44,0.15 0.98,0.15 0.5,0 0.945,-0.135 Q -1.95,3.34 -1.62,3.07 -1.29,2.8 -1.095,2.395 -0.9,1.99 -0.9,1.46 -0.9,0.82 -1.215,0.35 -1.53,-0.12 -2.18,-0.26 v -0.02 q 0.42,-0.19 0.7,-0.56 0.28,-0.37 0.28,-0.85 0,-0.49 -0.165,-0.85 Q -1.53,-2.9 -1.82,-3.13 -2.11,-3.36 -2.505,-3.475 -2.9,-3.59 -3.36,-3.59 q -0.53,0 -0.935,0.17 -0.405,0.17 -0.675,0.47 -0.27,0.3 -0.415,0.72 -0.145,0.42 -0.165,0.93 h 0.85 q 0,-0.31 0.08,-0.59 0.08,-0.28 0.245,-0.49 0.165,-0.21 0.42,-0.335 0.255,-0.125 0.595,-0.125 0.54,0 0.9,0.285 0.36,0.285 0.36,0.855 0,0.28 -0.11,0.5 -0.11,0.22 -0.295,0.365 -0.185,0.145 -0.43,0.22 -0.245,0.075 -0.515,0.075 h -0.18 q -0.05,0 -0.1,0 -0.04,0 -0.09,-0.01 z"
         id="path92" />
    </g>
    <g
       transform="matrix(0.26458333,0,0,0.26458333,479.83166,576.2647)"
       style="font-style:normal;font-weight:normal;font-size:10px;font-family:'Helvetica Neue';color-interpolation:linearRGB;fill:#262626;fill-opacity:1;stroke:#262626;stroke-width:1;stroke-linecap:square;stroke-linejoin:miter;stroke-miterlimit:10;stroke-dasharray:none;stroke-dashoffset:0;stroke-opacity:1;color-rendering:optimizeQuality;image-rendering:optimizeQuality;shape-rendering:auto;text-rendering:geometricPrecision"
       id="g94">
      <path
         style="stroke:none"
         d="m -11.82,-0.55 v 0.72 q 0.24,-0.03 0.51,-0.03 0.32,0 0.595,0.085 0.275,0.085 0.475,0.26 0.2,0.175 0.32,0.43 0.12,0.255 0.12,0.585 0,0.32 -0.125,0.575 -0.125,0.255 -0.335,0.43 -0.21,0.175 -0.49,0.27 -0.28,0.095 -0.59,0.095 -0.73,0 -1.11,-0.435 Q -12.83,2 -12.85,1.31 h -0.85 q -0.01,0.55 0.155,0.98 0.165,0.43 0.475,0.725 0.31,0.295 0.75,0.445 0.44,0.15 0.98,0.15 0.5,0 0.945,-0.135 Q -9.95,3.34 -9.62,3.07 -9.29,2.8 -9.095,2.395 -8.9,1.99 -8.9,1.46 -8.9,0.82 -9.215,0.35 -9.53,-0.12 -10.18,-0.26 v -0.02 q 0.42,-0.19 0.7,-0.56 0.28,-0.37 0.28,-0.85 0,-0.49 -0.165,-0.85 -0.165,-0.36 -0.455,-0.59 -0.29,-0.23 -0.685,-0.345 -0.395,-0.115 -0.855,-0.115 -0.53,0 -0.935,0.17 -0.405,0.17 -0.675,0.47 -0.27,0.3 -0.415,0.72 -0.145,0.42 -0.165,0.93 h 0.85 q 0,-0.31 0.08,-0.59 0.08,-0.28 0.245,-0.49 0.165,-0.21 0.42,-0.335 0.255,-0.125 0.595,-0.125 0.54,0 0.9,0.285 0.36,0.285 0.36,0.855 0,0.28 -0.11,0.5 -0.11,0.22 -0.295,0.365 -0.185,0.145 -0.43,0.22 -0.245,0.075 -0.515,0.075 h -0.18 q -0.05,0 -0.1,0 -0.04,0 -0.09,-0.01 z m 4.21,2.94 V 3.5 H -6.5 V 2.39 Z m 6.65,-5.11 v -0.75 h -3.5 l -0.66,3.68 0.73,0.04 q 0.25,-0.3 0.575,-0.485 0.325,-0.185 0.745,-0.185 0.36,0 0.655,0.12 0.295,0.12 0.505,0.335 0.21,0.215 0.325,0.51 0.115,0.295 0.115,0.645 0,0.42 -0.12,0.735 Q -1.71,2.24 -1.915,2.45 -2.12,2.66 -2.395,2.765 -2.67,2.87 -2.97,2.87 -3.29,2.87 -3.555,2.775 -3.82,2.68 -4.015,2.505 -4.21,2.33 -4.325,2.095 -4.44,1.86 -4.46,1.59 h -0.85 q 0.01,0.48 0.19,0.86 0.18,0.38 0.49,0.635 0.31,0.255 0.715,0.39 0.405,0.135 0.865,0.135 0.62,0 1.085,-0.195 Q -1.5,3.22 -1.19,2.89 -0.88,2.56 -0.725,2.135 -0.57,1.71 -0.57,1.26 q 0,-0.61 -0.18,-1.065 -0.18,-0.455 -0.49,-0.76 -0.31,-0.305 -0.73,-0.455 -0.42,-0.15 -0.89,-0.15 -0.36,0 -0.725,0.125 -0.365,0.125 -0.595,0.385 l -0.02,-0.02 0.38,-2.04 z"
         id="path93" />
    </g>
    <g
       transform="matrix(0,-0.26458333,0.26458333,0,472.46302,649.97648)"
       style="font-style:normal;font-weight:normal;font-size:11px;font-family:'Helvetica Neue';color-interpolation:linearRGB;fill:#262626;fill-opacity:1;stroke:#262626;stroke-width:1;stroke-linecap:square;stroke-linejoin:miter;stroke-miterlimit:10;stroke-dasharray:none;stroke-dashoffset:0;stroke-opacity:1;color-rendering:optimizeQuality;image-rendering:optimizeQuality;shape-rendering:auto;text-rendering:geometricPrecision"
       id="g95">
      <path
         style="stroke:none"
         d="M 2.233,-2.992 0.099,0 H 1.232 L 2.816,-2.354 4.4,0 h 1.199 l -2.2,-3.069 1.958,-2.618 H 4.235 L 2.816,-3.696 1.452,-5.687 H 0.253 Z"
         id="path94" />
    </g>
    <g
       transform="matrix(0,-0.26458333,0.26458333,0,473.78593,648.38898)"
       style="font-style:normal;font-weight:normal;font-size:8.8px;font-family:'Helvetica Neue';color-interpolation:linearRGB;fill:#262626;fill-opacity:1;stroke:#262626;stroke-width:1;stroke-linecap:square;stroke-linejoin:miter;stroke-miterlimit:10;stroke-dasharray:none;stroke-dashoffset:0;stroke-opacity:1;color-rendering:optimizeQuality;image-rendering:optimizeQuality;shape-rendering:auto;text-rendering:geometricPrecision"
       id="g96">
      <path
         style="stroke:none"
         d="m 0.3872,-4.0304 h 0.748 q -0.0088,-0.2816 0.0572,-0.5588 0.066,-0.2772 0.2156,-0.4972 0.1496,-0.22 0.3828,-0.3564 0.2332,-0.1364 0.5588,-0.1364 0.2464,0 0.4664,0.0792 0.22,0.0792 0.3828,0.2288 0.1628,0.1496 0.2596,0.3564 0.0968,0.2068 0.0968,0.462 0,0.3256 -0.1012,0.572 -0.1012,0.2464 -0.2992,0.4576 -0.198,0.2112 -0.4972,0.418 Q 2.3584,-2.7984 1.9624,-2.552 1.6368,-2.3584 1.3376,-2.1384 1.0384,-1.9184 0.8008,-1.628 0.5632,-1.3376 0.4092,-0.946 0.2552,-0.5544 0.2112,0 H 4.2856 V -0.66 H 1.0824 q 0.0528,-0.2904 0.2244,-0.5148 0.1716,-0.2244 0.4136,-0.418 0.242,-0.1936 0.5324,-0.3652 0.2904,-0.1716 0.5808,-0.3476 0.2904,-0.1848 0.5632,-0.3872 0.2728,-0.2024 0.484,-0.4532 0.2112,-0.2508 0.3388,-0.5676 0.1276,-0.3168 0.1276,-0.7304 0,-0.44 -0.154,-0.7744 -0.154,-0.3344 -0.418,-0.5588 -0.264,-0.2244 -0.6204,-0.3432 -0.3564,-0.1188 -0.7612,-0.1188 -0.4928,0 -0.88,0.1672 -0.3872,0.1672 -0.6468,0.462 -0.2596,0.2948 -0.3828,0.6996 -0.1232,0.4048 -0.0968,0.88 z"
         id="path95" />
    </g>
  </g>
</svg>
